G04*
G04 #@! TF.GenerationSoftware,Altium Limited,Altium Designer,23.1.1 (15)*
G04*
G04 Layer_Color=65535*
%FSLAX44Y44*%
%MOMM*%
G71*
G04*
G04 #@! TF.SameCoordinates,4691C8B8-A8D2-403F-8AEB-8B6B69F87735*
G04*
G04*
G04 #@! TF.FilePolarity,Positive*
G04*
G01*
G75*
%ADD10C,0.7000*%
%ADD11C,0.1500*%
%ADD12C,0.2000*%
G36*
X257280Y95750D02*
X264480Y95750D01*
X257280Y102950D01*
X257280Y95750D01*
D02*
G37*
G36*
X246695Y16910D02*
X246794D01*
X247062Y16882D01*
X247358Y16840D01*
X247668Y16769D01*
X248006Y16685D01*
X248316Y16572D01*
X248330D01*
X248358Y16558D01*
X248401Y16530D01*
X248457Y16501D01*
X248598Y16431D01*
X248781Y16304D01*
X248993Y16163D01*
X249204Y15980D01*
X249402Y15768D01*
X249585Y15529D01*
Y15515D01*
X249599Y15501D01*
X249627Y15458D01*
X249655Y15416D01*
X249726Y15275D01*
X249810Y15092D01*
X249909Y14866D01*
X249980Y14598D01*
X250050Y14316D01*
X250078Y14006D01*
X248838Y13908D01*
Y13922D01*
Y13950D01*
X248824Y13992D01*
X248810Y14063D01*
X248767Y14218D01*
X248711Y14429D01*
X248626Y14655D01*
X248499Y14880D01*
X248344Y15092D01*
X248147Y15289D01*
X248119Y15303D01*
X248048Y15360D01*
X247907Y15444D01*
X247724Y15529D01*
X247484Y15613D01*
X247202Y15698D01*
X246850Y15754D01*
X246455Y15768D01*
X246258D01*
X246173Y15754D01*
X246061Y15740D01*
X245807Y15712D01*
X245525Y15656D01*
X245243Y15585D01*
X244975Y15472D01*
X244862Y15402D01*
X244750Y15331D01*
X244721Y15317D01*
X244665Y15261D01*
X244580Y15162D01*
X244496Y15049D01*
X244397Y14894D01*
X244313Y14725D01*
X244256Y14528D01*
X244228Y14302D01*
Y14274D01*
Y14218D01*
X244242Y14119D01*
X244270Y14006D01*
X244313Y13865D01*
X244383Y13724D01*
X244468Y13583D01*
X244594Y13442D01*
X244609Y13428D01*
X244679Y13386D01*
X244736Y13344D01*
X244792Y13316D01*
X244876Y13273D01*
X244975Y13217D01*
X245102Y13175D01*
X245243Y13118D01*
X245398Y13062D01*
X245581Y12991D01*
X245779Y12935D01*
X246004Y12864D01*
X246258Y12808D01*
X246540Y12737D01*
X246554D01*
X246610Y12723D01*
X246695Y12709D01*
X246794Y12681D01*
X246921Y12653D01*
X247076Y12611D01*
X247231Y12568D01*
X247400Y12526D01*
X247766Y12427D01*
X248119Y12329D01*
X248288Y12272D01*
X248443Y12216D01*
X248584Y12174D01*
X248697Y12117D01*
X248711D01*
X248739Y12103D01*
X248781Y12075D01*
X248838Y12047D01*
X248993Y11962D01*
X249176Y11849D01*
X249387Y11694D01*
X249599Y11525D01*
X249796Y11328D01*
X249965Y11116D01*
X249980Y11088D01*
X250036Y11018D01*
X250092Y10891D01*
X250177Y10722D01*
X250247Y10524D01*
X250318Y10285D01*
X250360Y10017D01*
X250374Y9735D01*
Y9721D01*
Y9707D01*
Y9664D01*
Y9608D01*
X250346Y9453D01*
X250318Y9256D01*
X250261Y9030D01*
X250191Y8790D01*
X250078Y8537D01*
X249923Y8269D01*
Y8255D01*
X249909Y8241D01*
X249839Y8156D01*
X249740Y8029D01*
X249599Y7888D01*
X249416Y7719D01*
X249190Y7536D01*
X248936Y7367D01*
X248640Y7211D01*
X248626D01*
X248598Y7197D01*
X248556Y7183D01*
X248499Y7155D01*
X248415Y7127D01*
X248316Y7085D01*
X248091Y7028D01*
X247823Y6958D01*
X247498Y6887D01*
X247146Y6845D01*
X246765Y6831D01*
X246540D01*
X246427Y6845D01*
X246300D01*
X246159Y6859D01*
X245990Y6873D01*
X245638Y6930D01*
X245271Y6986D01*
X244905Y7085D01*
X244552Y7211D01*
X244538D01*
X244510Y7226D01*
X244468Y7254D01*
X244411Y7282D01*
X244242Y7367D01*
X244045Y7493D01*
X243819Y7663D01*
X243580Y7860D01*
X243354Y8100D01*
X243143Y8367D01*
Y8382D01*
X243114Y8410D01*
X243100Y8452D01*
X243058Y8508D01*
X243030Y8579D01*
X242987Y8663D01*
X242889Y8875D01*
X242790Y9143D01*
X242705Y9439D01*
X242649Y9777D01*
X242621Y10130D01*
X243833Y10242D01*
Y10228D01*
Y10214D01*
X243847Y10172D01*
Y10115D01*
X243876Y9989D01*
X243918Y9805D01*
X243974Y9622D01*
X244031Y9411D01*
X244129Y9213D01*
X244228Y9030D01*
X244242Y9016D01*
X244284Y8960D01*
X244355Y8861D01*
X244468Y8762D01*
X244609Y8635D01*
X244764Y8508D01*
X244975Y8382D01*
X245201Y8269D01*
X245215D01*
X245229Y8255D01*
X245271Y8241D01*
X245313Y8227D01*
X245454Y8184D01*
X245638Y8128D01*
X245863Y8071D01*
X246117Y8029D01*
X246399Y8001D01*
X246709Y7987D01*
X246836D01*
X246977Y8001D01*
X247146Y8015D01*
X247343Y8043D01*
X247569Y8071D01*
X247794Y8128D01*
X248006Y8198D01*
X248034Y8212D01*
X248105Y8241D01*
X248203Y8297D01*
X248330Y8353D01*
X248457Y8452D01*
X248598Y8551D01*
X248739Y8663D01*
X248852Y8805D01*
X248866Y8819D01*
X248894Y8875D01*
X248936Y8945D01*
X248993Y9058D01*
X249049Y9171D01*
X249091Y9312D01*
X249120Y9467D01*
X249134Y9636D01*
Y9650D01*
Y9721D01*
X249120Y9805D01*
X249105Y9918D01*
X249063Y10031D01*
X249021Y10172D01*
X248951Y10313D01*
X248852Y10440D01*
X248838Y10454D01*
X248795Y10496D01*
X248739Y10553D01*
X248640Y10637D01*
X248528Y10722D01*
X248372Y10820D01*
X248189Y10919D01*
X247978Y11004D01*
X247964Y11018D01*
X247893Y11032D01*
X247780Y11074D01*
X247710Y11088D01*
X247611Y11116D01*
X247513Y11159D01*
X247386Y11187D01*
X247245Y11229D01*
X247076Y11271D01*
X246906Y11314D01*
X246709Y11370D01*
X246483Y11427D01*
X246244Y11483D01*
X246230D01*
X246187Y11497D01*
X246117Y11511D01*
X246032Y11539D01*
X245920Y11567D01*
X245793Y11596D01*
X245511Y11680D01*
X245201Y11779D01*
X244876Y11878D01*
X244594Y11976D01*
X244468Y12033D01*
X244355Y12089D01*
X244341D01*
X244327Y12103D01*
X244242Y12160D01*
X244115Y12230D01*
X243974Y12343D01*
X243805Y12470D01*
X243636Y12625D01*
X243467Y12808D01*
X243326Y13005D01*
X243312Y13034D01*
X243269Y13104D01*
X243213Y13217D01*
X243157Y13358D01*
X243100Y13541D01*
X243044Y13752D01*
X243001Y13978D01*
X242987Y14218D01*
Y14232D01*
Y14246D01*
Y14288D01*
Y14345D01*
X243016Y14485D01*
X243044Y14669D01*
X243086Y14880D01*
X243157Y15120D01*
X243255Y15360D01*
X243396Y15599D01*
Y15613D01*
X243410Y15627D01*
X243481Y15712D01*
X243580Y15825D01*
X243706Y15966D01*
X243876Y16121D01*
X244087Y16290D01*
X244341Y16445D01*
X244623Y16586D01*
X244637D01*
X244665Y16600D01*
X244707Y16614D01*
X244764Y16642D01*
X244834Y16671D01*
X244933Y16699D01*
X245144Y16755D01*
X245412Y16811D01*
X245722Y16868D01*
X246047Y16910D01*
X246413Y16924D01*
X246596D01*
X246695Y16910D01*
D02*
G37*
G36*
X214131D02*
X214230D01*
X214497Y16882D01*
X214793Y16840D01*
X215104Y16769D01*
X215442Y16685D01*
X215752Y16572D01*
X215766D01*
X215794Y16558D01*
X215837Y16530D01*
X215893Y16501D01*
X216034Y16431D01*
X216217Y16304D01*
X216429Y16163D01*
X216640Y15980D01*
X216838Y15768D01*
X217021Y15529D01*
Y15515D01*
X217035Y15501D01*
X217063Y15458D01*
X217091Y15416D01*
X217162Y15275D01*
X217246Y15092D01*
X217345Y14866D01*
X217416Y14598D01*
X217486Y14316D01*
X217514Y14006D01*
X216274Y13908D01*
Y13922D01*
Y13950D01*
X216259Y13992D01*
X216245Y14063D01*
X216203Y14218D01*
X216147Y14429D01*
X216062Y14655D01*
X215935Y14880D01*
X215780Y15092D01*
X215583Y15289D01*
X215555Y15303D01*
X215484Y15360D01*
X215343Y15444D01*
X215160Y15529D01*
X214920Y15613D01*
X214638Y15698D01*
X214286Y15754D01*
X213891Y15768D01*
X213694D01*
X213609Y15754D01*
X213496Y15740D01*
X213243Y15712D01*
X212961Y15656D01*
X212679Y15585D01*
X212411Y15472D01*
X212298Y15402D01*
X212185Y15331D01*
X212157Y15317D01*
X212101Y15261D01*
X212016Y15162D01*
X211932Y15049D01*
X211833Y14894D01*
X211749Y14725D01*
X211692Y14528D01*
X211664Y14302D01*
Y14274D01*
Y14218D01*
X211678Y14119D01*
X211706Y14006D01*
X211749Y13865D01*
X211819Y13724D01*
X211904Y13583D01*
X212030Y13442D01*
X212045Y13428D01*
X212115Y13386D01*
X212171Y13344D01*
X212228Y13316D01*
X212312Y13273D01*
X212411Y13217D01*
X212538Y13175D01*
X212679Y13118D01*
X212834Y13062D01*
X213017Y12991D01*
X213215Y12935D01*
X213440Y12864D01*
X213694Y12808D01*
X213976Y12737D01*
X213990D01*
X214046Y12723D01*
X214131Y12709D01*
X214230Y12681D01*
X214356Y12653D01*
X214512Y12611D01*
X214667Y12568D01*
X214836Y12526D01*
X215202Y12427D01*
X215555Y12329D01*
X215724Y12272D01*
X215879Y12216D01*
X216020Y12174D01*
X216133Y12117D01*
X216147D01*
X216175Y12103D01*
X216217Y12075D01*
X216274Y12047D01*
X216429Y11962D01*
X216612Y11849D01*
X216823Y11694D01*
X217035Y11525D01*
X217232Y11328D01*
X217401Y11116D01*
X217416Y11088D01*
X217472Y11018D01*
X217528Y10891D01*
X217613Y10722D01*
X217683Y10524D01*
X217754Y10285D01*
X217796Y10017D01*
X217810Y9735D01*
Y9721D01*
Y9707D01*
Y9664D01*
Y9608D01*
X217782Y9453D01*
X217754Y9256D01*
X217697Y9030D01*
X217627Y8790D01*
X217514Y8537D01*
X217359Y8269D01*
Y8255D01*
X217345Y8241D01*
X217274Y8156D01*
X217176Y8029D01*
X217035Y7888D01*
X216852Y7719D01*
X216626Y7536D01*
X216372Y7367D01*
X216076Y7211D01*
X216062D01*
X216034Y7197D01*
X215992Y7183D01*
X215935Y7155D01*
X215851Y7127D01*
X215752Y7085D01*
X215527Y7028D01*
X215259Y6958D01*
X214934Y6887D01*
X214582Y6845D01*
X214201Y6831D01*
X213976D01*
X213863Y6845D01*
X213736D01*
X213595Y6859D01*
X213426Y6873D01*
X213074Y6930D01*
X212707Y6986D01*
X212341Y7085D01*
X211988Y7211D01*
X211974D01*
X211946Y7226D01*
X211904Y7254D01*
X211847Y7282D01*
X211678Y7367D01*
X211481Y7493D01*
X211255Y7663D01*
X211015Y7860D01*
X210790Y8100D01*
X210578Y8367D01*
Y8382D01*
X210550Y8410D01*
X210536Y8452D01*
X210494Y8508D01*
X210466Y8579D01*
X210423Y8663D01*
X210325Y8875D01*
X210226Y9143D01*
X210141Y9439D01*
X210085Y9777D01*
X210057Y10130D01*
X211269Y10242D01*
Y10228D01*
Y10214D01*
X211283Y10172D01*
Y10115D01*
X211311Y9989D01*
X211354Y9805D01*
X211410Y9622D01*
X211467Y9411D01*
X211565Y9213D01*
X211664Y9030D01*
X211678Y9016D01*
X211720Y8960D01*
X211791Y8861D01*
X211904Y8762D01*
X212045Y8635D01*
X212200Y8508D01*
X212411Y8382D01*
X212637Y8269D01*
X212651D01*
X212665Y8255D01*
X212707Y8241D01*
X212749Y8227D01*
X212890Y8184D01*
X213074Y8128D01*
X213299Y8071D01*
X213553Y8029D01*
X213835Y8001D01*
X214145Y7987D01*
X214272D01*
X214413Y8001D01*
X214582Y8015D01*
X214779Y8043D01*
X215005Y8071D01*
X215231Y8128D01*
X215442Y8198D01*
X215470Y8212D01*
X215541Y8241D01*
X215639Y8297D01*
X215766Y8353D01*
X215893Y8452D01*
X216034Y8551D01*
X216175Y8663D01*
X216288Y8805D01*
X216302Y8819D01*
X216330Y8875D01*
X216372Y8945D01*
X216429Y9058D01*
X216485Y9171D01*
X216527Y9312D01*
X216556Y9467D01*
X216570Y9636D01*
Y9650D01*
Y9721D01*
X216556Y9805D01*
X216542Y9918D01*
X216499Y10031D01*
X216457Y10172D01*
X216386Y10313D01*
X216288Y10440D01*
X216274Y10454D01*
X216231Y10496D01*
X216175Y10553D01*
X216076Y10637D01*
X215963Y10722D01*
X215808Y10820D01*
X215625Y10919D01*
X215414Y11004D01*
X215400Y11018D01*
X215329Y11032D01*
X215216Y11074D01*
X215146Y11088D01*
X215047Y11116D01*
X214949Y11159D01*
X214822Y11187D01*
X214681Y11229D01*
X214512Y11271D01*
X214342Y11314D01*
X214145Y11370D01*
X213919Y11427D01*
X213680Y11483D01*
X213666D01*
X213623Y11497D01*
X213553Y11511D01*
X213468Y11539D01*
X213356Y11567D01*
X213229Y11596D01*
X212947Y11680D01*
X212637Y11779D01*
X212312Y11878D01*
X212030Y11976D01*
X211904Y12033D01*
X211791Y12089D01*
X211777D01*
X211763Y12103D01*
X211678Y12160D01*
X211551Y12230D01*
X211410Y12343D01*
X211241Y12470D01*
X211072Y12625D01*
X210903Y12808D01*
X210762Y13005D01*
X210748Y13034D01*
X210705Y13104D01*
X210649Y13217D01*
X210592Y13358D01*
X210536Y13541D01*
X210480Y13752D01*
X210438Y13978D01*
X210423Y14218D01*
Y14232D01*
Y14246D01*
Y14288D01*
Y14345D01*
X210452Y14485D01*
X210480Y14669D01*
X210522Y14880D01*
X210592Y15120D01*
X210691Y15360D01*
X210832Y15599D01*
Y15613D01*
X210846Y15627D01*
X210917Y15712D01*
X211015Y15825D01*
X211142Y15966D01*
X211311Y16121D01*
X211523Y16290D01*
X211777Y16445D01*
X212059Y16586D01*
X212073D01*
X212101Y16600D01*
X212143Y16614D01*
X212200Y16642D01*
X212270Y16671D01*
X212369Y16699D01*
X212580Y16755D01*
X212848Y16811D01*
X213158Y16868D01*
X213482Y16910D01*
X213849Y16924D01*
X214032D01*
X214131Y16910D01*
D02*
G37*
G36*
X192478Y14218D02*
X192577Y14204D01*
X192788Y14175D01*
X193042Y14119D01*
X193310Y14034D01*
X193577Y13908D01*
X193845Y13752D01*
X193859D01*
X193874Y13724D01*
X193958Y13668D01*
X194085Y13555D01*
X194240Y13414D01*
X194409Y13231D01*
X194578Y13005D01*
X194748Y12737D01*
X194888Y12442D01*
Y12427D01*
X194903Y12399D01*
X194917Y12357D01*
X194945Y12300D01*
X194973Y12216D01*
X195001Y12117D01*
X195072Y11892D01*
X195142Y11610D01*
X195199Y11300D01*
X195241Y10947D01*
X195255Y10581D01*
Y10567D01*
Y10538D01*
Y10482D01*
Y10397D01*
X195241Y10299D01*
Y10186D01*
X195213Y9932D01*
X195156Y9622D01*
X195086Y9298D01*
X194987Y8960D01*
X194860Y8621D01*
Y8607D01*
X194846Y8579D01*
X194818Y8537D01*
X194790Y8480D01*
X194691Y8325D01*
X194564Y8128D01*
X194409Y7916D01*
X194212Y7705D01*
X193986Y7493D01*
X193718Y7296D01*
X193704D01*
X193690Y7282D01*
X193648Y7254D01*
X193592Y7226D01*
X193451Y7155D01*
X193253Y7071D01*
X193014Y6986D01*
X192760Y6915D01*
X192464Y6859D01*
X192168Y6845D01*
X192069D01*
X191956Y6859D01*
X191815Y6873D01*
X191646Y6901D01*
X191463Y6944D01*
X191280Y7000D01*
X191096Y7085D01*
X191082Y7099D01*
X191012Y7127D01*
X190927Y7183D01*
X190814Y7268D01*
X190702Y7352D01*
X190561Y7465D01*
X190434Y7592D01*
X190321Y7733D01*
Y4293D01*
X189123D01*
Y14077D01*
X190208D01*
Y13146D01*
X190222Y13175D01*
X190279Y13231D01*
X190349Y13330D01*
X190462Y13442D01*
X190589Y13583D01*
X190730Y13710D01*
X190899Y13837D01*
X191068Y13950D01*
X191096Y13964D01*
X191153Y13992D01*
X191266Y14034D01*
X191406Y14091D01*
X191576Y14147D01*
X191773Y14189D01*
X191999Y14218D01*
X192252Y14232D01*
X192407D01*
X192478Y14218D01*
D02*
G37*
G36*
X171065D02*
X171163Y14204D01*
X171375Y14175D01*
X171628Y14119D01*
X171896Y14034D01*
X172164Y13908D01*
X172432Y13752D01*
X172446D01*
X172460Y13724D01*
X172545Y13668D01*
X172672Y13555D01*
X172827Y13414D01*
X172996Y13231D01*
X173165Y13005D01*
X173334Y12737D01*
X173475Y12442D01*
Y12427D01*
X173489Y12399D01*
X173503Y12357D01*
X173531Y12300D01*
X173560Y12216D01*
X173588Y12117D01*
X173658Y11892D01*
X173729Y11610D01*
X173785Y11300D01*
X173828Y10947D01*
X173842Y10581D01*
Y10567D01*
Y10538D01*
Y10482D01*
Y10397D01*
X173828Y10299D01*
Y10186D01*
X173799Y9932D01*
X173743Y9622D01*
X173673Y9298D01*
X173574Y8960D01*
X173447Y8621D01*
Y8607D01*
X173433Y8579D01*
X173405Y8537D01*
X173377Y8480D01*
X173278Y8325D01*
X173151Y8128D01*
X172996Y7916D01*
X172799Y7705D01*
X172573Y7493D01*
X172305Y7296D01*
X172291D01*
X172277Y7282D01*
X172235Y7254D01*
X172178Y7226D01*
X172037Y7155D01*
X171840Y7071D01*
X171600Y6986D01*
X171346Y6915D01*
X171050Y6859D01*
X170754Y6845D01*
X170656D01*
X170543Y6859D01*
X170402Y6873D01*
X170233Y6901D01*
X170050Y6944D01*
X169866Y7000D01*
X169683Y7085D01*
X169669Y7099D01*
X169599Y7127D01*
X169514Y7183D01*
X169401Y7268D01*
X169288Y7352D01*
X169147Y7465D01*
X169021Y7592D01*
X168908Y7733D01*
Y4293D01*
X167710D01*
Y14077D01*
X168795D01*
Y13146D01*
X168809Y13175D01*
X168865Y13231D01*
X168936Y13330D01*
X169049Y13442D01*
X169176Y13583D01*
X169317Y13710D01*
X169486Y13837D01*
X169655Y13950D01*
X169683Y13964D01*
X169739Y13992D01*
X169852Y14034D01*
X169993Y14091D01*
X170162Y14147D01*
X170360Y14189D01*
X170585Y14218D01*
X170839Y14232D01*
X170994D01*
X171065Y14218D01*
D02*
G37*
G36*
X262596Y16783D02*
X262780Y16755D01*
X263005Y16713D01*
X263259Y16642D01*
X263513Y16558D01*
X263766Y16445D01*
X263780D01*
X263795Y16431D01*
X263879Y16389D01*
X264006Y16304D01*
X264147Y16205D01*
X264316Y16064D01*
X264485Y15909D01*
X264655Y15726D01*
X264795Y15515D01*
X264810Y15486D01*
X264852Y15416D01*
X264908Y15289D01*
X264979Y15134D01*
X265049Y14951D01*
X265106Y14739D01*
X265148Y14500D01*
X265162Y14260D01*
Y14232D01*
Y14147D01*
X265148Y14034D01*
X265120Y13879D01*
X265077Y13696D01*
X265007Y13499D01*
X264922Y13301D01*
X264810Y13104D01*
X264795Y13076D01*
X264753Y13019D01*
X264669Y12921D01*
X264556Y12808D01*
X264415Y12681D01*
X264246Y12540D01*
X264048Y12413D01*
X263809Y12286D01*
X263823D01*
X263851Y12272D01*
X263893Y12258D01*
X263950Y12244D01*
X264105Y12188D01*
X264302Y12103D01*
X264528Y11990D01*
X264753Y11849D01*
X264965Y11666D01*
X265162Y11455D01*
X265176Y11427D01*
X265233Y11342D01*
X265317Y11201D01*
X265402Y11018D01*
X265486Y10792D01*
X265571Y10524D01*
X265627Y10214D01*
X265641Y9876D01*
Y9862D01*
Y9819D01*
Y9749D01*
X265627Y9664D01*
X265613Y9552D01*
X265585Y9425D01*
X265557Y9284D01*
X265529Y9129D01*
X265416Y8790D01*
X265331Y8607D01*
X265247Y8438D01*
X265134Y8255D01*
X265007Y8071D01*
X264866Y7888D01*
X264697Y7719D01*
X264683Y7705D01*
X264655Y7677D01*
X264598Y7634D01*
X264528Y7578D01*
X264443Y7508D01*
X264330Y7437D01*
X264203Y7352D01*
X264048Y7282D01*
X263893Y7197D01*
X263710Y7113D01*
X263527Y7042D01*
X263315Y6972D01*
X263090Y6916D01*
X262850Y6873D01*
X262610Y6845D01*
X262343Y6831D01*
X262216D01*
X262131Y6845D01*
X262018Y6859D01*
X261891Y6873D01*
X261751Y6901D01*
X261595Y6930D01*
X261257Y7014D01*
X260905Y7155D01*
X260721Y7240D01*
X260552Y7338D01*
X260383Y7465D01*
X260214Y7592D01*
X260200Y7606D01*
X260172Y7634D01*
X260129Y7677D01*
X260087Y7733D01*
X260017Y7804D01*
X259946Y7902D01*
X259862Y8001D01*
X259777Y8128D01*
X259692Y8269D01*
X259608Y8410D01*
X259453Y8748D01*
X259326Y9143D01*
X259284Y9354D01*
X259255Y9580D01*
X260454Y9735D01*
Y9721D01*
X260468Y9693D01*
X260482Y9636D01*
X260496Y9566D01*
X260510Y9481D01*
X260538Y9382D01*
X260609Y9171D01*
X260707Y8917D01*
X260834Y8678D01*
X260975Y8452D01*
X261144Y8255D01*
X261173Y8241D01*
X261229Y8184D01*
X261342Y8114D01*
X261483Y8043D01*
X261652Y7959D01*
X261863Y7888D01*
X262103Y7832D01*
X262357Y7818D01*
X262441D01*
X262498Y7832D01*
X262653Y7846D01*
X262850Y7888D01*
X263076Y7959D01*
X263315Y8057D01*
X263555Y8198D01*
X263780Y8396D01*
X263809Y8424D01*
X263879Y8508D01*
X263964Y8635D01*
X264077Y8805D01*
X264189Y9016D01*
X264274Y9256D01*
X264344Y9538D01*
X264373Y9848D01*
Y9862D01*
Y9890D01*
Y9932D01*
X264359Y9989D01*
X264344Y10144D01*
X264302Y10327D01*
X264246Y10553D01*
X264147Y10778D01*
X264006Y11004D01*
X263823Y11215D01*
X263795Y11243D01*
X263724Y11300D01*
X263611Y11384D01*
X263456Y11483D01*
X263259Y11582D01*
X263019Y11666D01*
X262751Y11723D01*
X262455Y11751D01*
X262328D01*
X262230Y11737D01*
X262103Y11723D01*
X261962Y11694D01*
X261793Y11666D01*
X261610Y11624D01*
X261751Y12681D01*
X261821D01*
X261877Y12667D01*
X262061D01*
X262216Y12695D01*
X262399Y12723D01*
X262610Y12766D01*
X262850Y12836D01*
X263076Y12935D01*
X263315Y13062D01*
X263329D01*
X263344Y13076D01*
X263414Y13132D01*
X263513Y13231D01*
X263626Y13358D01*
X263738Y13541D01*
X263837Y13752D01*
X263907Y13992D01*
X263936Y14133D01*
Y14288D01*
Y14302D01*
Y14316D01*
Y14401D01*
X263907Y14514D01*
X263879Y14669D01*
X263823Y14838D01*
X263752Y15021D01*
X263640Y15204D01*
X263484Y15374D01*
X263470Y15388D01*
X263400Y15444D01*
X263301Y15515D01*
X263174Y15599D01*
X263005Y15670D01*
X262808Y15740D01*
X262582Y15797D01*
X262328Y15811D01*
X262216D01*
X262089Y15783D01*
X261920Y15754D01*
X261737Y15698D01*
X261553Y15627D01*
X261356Y15515D01*
X261173Y15374D01*
X261159Y15360D01*
X261102Y15289D01*
X261017Y15190D01*
X260919Y15049D01*
X260820Y14866D01*
X260721Y14641D01*
X260637Y14373D01*
X260581Y14063D01*
X259382Y14274D01*
Y14288D01*
X259396Y14331D01*
X259410Y14387D01*
X259425Y14471D01*
X259453Y14570D01*
X259495Y14683D01*
X259580Y14951D01*
X259721Y15261D01*
X259890Y15571D01*
X260101Y15867D01*
X260369Y16135D01*
X260383Y16149D01*
X260411Y16163D01*
X260454Y16191D01*
X260510Y16234D01*
X260581Y16290D01*
X260679Y16346D01*
X260778Y16403D01*
X260905Y16473D01*
X261187Y16586D01*
X261511Y16699D01*
X261891Y16769D01*
X262089Y16797D01*
X262441D01*
X262596Y16783D01*
D02*
G37*
G36*
X136682Y16755D02*
X136724D01*
Y15641D01*
X136428D01*
X136344Y15656D01*
X136104D01*
X135991Y15641D01*
X135850Y15613D01*
X135709Y15585D01*
X135554Y15529D01*
X135413Y15444D01*
X135286Y15345D01*
X135272Y15331D01*
X135230Y15289D01*
X135174Y15204D01*
X135089Y15078D01*
X134976Y14908D01*
X134864Y14683D01*
X134793Y14542D01*
X134722Y14401D01*
X134652Y14246D01*
X134581Y14063D01*
Y14049D01*
X134553Y14006D01*
X134539Y13950D01*
X134497Y13865D01*
X134455Y13767D01*
X134412Y13654D01*
X134300Y13414D01*
X134159Y13146D01*
X134018Y12893D01*
X133947Y12780D01*
X133877Y12667D01*
X133820Y12582D01*
X133750Y12512D01*
X133736Y12498D01*
X133693Y12456D01*
X133623Y12399D01*
X133524Y12329D01*
X133412Y12244D01*
X133271Y12160D01*
X133115Y12075D01*
X132946Y11990D01*
X132960D01*
X132989Y11976D01*
X133045Y11962D01*
X133115Y11934D01*
X133200Y11892D01*
X133299Y11835D01*
X133412Y11765D01*
X133538Y11680D01*
X133665Y11567D01*
X133820Y11455D01*
X133975Y11314D01*
X134130Y11144D01*
X134300Y10961D01*
X134469Y10750D01*
X134638Y10510D01*
X134807Y10242D01*
X136823Y7000D01*
X135216D01*
X133581Y9636D01*
X133567Y9650D01*
X133552Y9678D01*
X133510Y9735D01*
X133468Y9819D01*
X133412Y9904D01*
X133341Y10003D01*
X133186Y10242D01*
X133003Y10482D01*
X132819Y10736D01*
X132636Y10961D01*
X132537Y11060D01*
X132453Y11144D01*
X132439Y11159D01*
X132368Y11215D01*
X132270Y11286D01*
X132143Y11356D01*
X131974Y11441D01*
X131776Y11497D01*
X131551Y11553D01*
X131297Y11567D01*
Y7000D01*
X130000D01*
Y16755D01*
X131297D01*
Y12484D01*
X131438D01*
X131593Y12498D01*
X131776Y12526D01*
X131988Y12568D01*
X132185Y12625D01*
X132368Y12709D01*
X132523Y12822D01*
X132537Y12836D01*
X132594Y12893D01*
X132664Y13005D01*
X132721Y13076D01*
X132777Y13160D01*
X132833Y13259D01*
X132904Y13372D01*
X132989Y13513D01*
X133059Y13668D01*
X133158Y13837D01*
X133242Y14020D01*
X133341Y14232D01*
X133440Y14471D01*
Y14485D01*
X133454Y14514D01*
X133482Y14556D01*
X133510Y14626D01*
X133581Y14796D01*
X133679Y15007D01*
X133778Y15219D01*
X133891Y15444D01*
X134003Y15656D01*
X134102Y15825D01*
X134116Y15839D01*
X134159Y15895D01*
X134215Y15966D01*
X134300Y16050D01*
X134398Y16163D01*
X134525Y16276D01*
X134680Y16389D01*
X134849Y16487D01*
X134878Y16501D01*
X134934Y16530D01*
X135033Y16572D01*
X135174Y16628D01*
X135329Y16685D01*
X135512Y16727D01*
X135723Y16755D01*
X135935Y16769D01*
X136583D01*
X136682Y16755D01*
D02*
G37*
G36*
X151075Y7000D02*
X149877D01*
Y10144D01*
X146550D01*
Y7000D01*
X145352D01*
Y14077D01*
X146550D01*
Y11130D01*
X149877D01*
Y14077D01*
X151075D01*
Y7000D01*
D02*
G37*
G36*
X231752Y9932D02*
X228045D01*
Y11130D01*
X231752D01*
Y9932D01*
D02*
G37*
G36*
X281599Y7000D02*
X280457D01*
X277793Y14077D01*
X279062D01*
X280584Y9833D01*
Y9819D01*
X280598Y9805D01*
X280612Y9763D01*
X280626Y9721D01*
X280669Y9580D01*
X280725Y9396D01*
X280796Y9185D01*
X280880Y8945D01*
X280951Y8678D01*
X281035Y8410D01*
X281049Y8438D01*
X281063Y8508D01*
X281106Y8621D01*
X281148Y8790D01*
X281218Y8974D01*
X281289Y9213D01*
X281388Y9467D01*
X281486Y9749D01*
X283051Y14077D01*
X284292D01*
X281599Y7000D01*
D02*
G37*
G36*
X208337Y11116D02*
Y11102D01*
Y11046D01*
Y10975D01*
Y10877D01*
X208323Y10750D01*
Y10609D01*
X208309Y10440D01*
X208295Y10271D01*
X208252Y9890D01*
X208196Y9495D01*
X208111Y9115D01*
X208055Y8931D01*
X207999Y8762D01*
Y8748D01*
X207985Y8720D01*
X207956Y8678D01*
X207928Y8621D01*
X207844Y8466D01*
X207717Y8269D01*
X207548Y8043D01*
X207350Y7818D01*
X207097Y7578D01*
X206786Y7367D01*
X206772D01*
X206744Y7338D01*
X206702Y7324D01*
X206631Y7282D01*
X206547Y7240D01*
X206434Y7197D01*
X206321Y7155D01*
X206180Y7099D01*
X206025Y7042D01*
X205856Y7000D01*
X205673Y6958D01*
X205461Y6916D01*
X205250Y6887D01*
X205024Y6859D01*
X204517Y6831D01*
X204390D01*
X204291Y6845D01*
X204178D01*
X204037Y6859D01*
X203882Y6873D01*
X203727Y6887D01*
X203375Y6944D01*
X202994Y7028D01*
X202628Y7141D01*
X202275Y7296D01*
X202261D01*
X202233Y7324D01*
X202191Y7352D01*
X202134Y7381D01*
X201979Y7493D01*
X201796Y7649D01*
X201585Y7846D01*
X201387Y8071D01*
X201190Y8353D01*
X201035Y8663D01*
Y8678D01*
X201021Y8706D01*
X201007Y8762D01*
X200978Y8833D01*
X200950Y8917D01*
X200922Y9030D01*
X200880Y9157D01*
X200851Y9312D01*
X200823Y9481D01*
X200781Y9664D01*
X200753Y9862D01*
X200725Y10073D01*
X200696Y10313D01*
X200682Y10567D01*
X200668Y10834D01*
Y11116D01*
Y16755D01*
X201965D01*
Y11116D01*
Y11102D01*
Y11060D01*
Y10990D01*
Y10905D01*
X201979Y10806D01*
Y10679D01*
X201993Y10411D01*
X202022Y10101D01*
X202064Y9791D01*
X202120Y9495D01*
X202148Y9368D01*
X202191Y9241D01*
X202205Y9213D01*
X202233Y9143D01*
X202304Y9044D01*
X202388Y8903D01*
X202487Y8762D01*
X202628Y8607D01*
X202797Y8452D01*
X202994Y8325D01*
X203022Y8311D01*
X203093Y8269D01*
X203220Y8227D01*
X203389Y8170D01*
X203586Y8100D01*
X203840Y8057D01*
X204108Y8015D01*
X204404Y8001D01*
X204545D01*
X204629Y8015D01*
X204756D01*
X204883Y8029D01*
X205193Y8086D01*
X205532Y8156D01*
X205856Y8269D01*
X206166Y8424D01*
X206307Y8522D01*
X206434Y8635D01*
X206448Y8649D01*
X206462Y8663D01*
X206490Y8706D01*
X206533Y8762D01*
X206575Y8847D01*
X206631Y8931D01*
X206688Y9058D01*
X206744Y9185D01*
X206800Y9340D01*
X206843Y9523D01*
X206899Y9735D01*
X206941Y9960D01*
X206984Y10214D01*
X207012Y10482D01*
X207040Y10792D01*
Y11116D01*
Y16755D01*
X208337D01*
Y11116D01*
D02*
G37*
G36*
X294653Y7000D02*
X293286D01*
Y8367D01*
X294653D01*
Y7000D01*
D02*
G37*
G36*
X289536D02*
X288337D01*
Y14626D01*
X288323Y14612D01*
X288253Y14556D01*
X288168Y14471D01*
X288027Y14373D01*
X287872Y14246D01*
X287675Y14105D01*
X287449Y13950D01*
X287196Y13795D01*
X287181D01*
X287167Y13781D01*
X287083Y13724D01*
X286942Y13654D01*
X286773Y13569D01*
X286575Y13471D01*
X286364Y13372D01*
X286152Y13273D01*
X285941Y13189D01*
Y14345D01*
X285955D01*
X285983Y14373D01*
X286040Y14387D01*
X286110Y14429D01*
X286195Y14471D01*
X286293Y14528D01*
X286533Y14669D01*
X286815Y14824D01*
X287097Y15021D01*
X287393Y15247D01*
X287689Y15486D01*
X287703Y15501D01*
X287717Y15515D01*
X287759Y15557D01*
X287816Y15599D01*
X287943Y15740D01*
X288112Y15909D01*
X288281Y16107D01*
X288464Y16332D01*
X288619Y16558D01*
X288760Y16797D01*
X289536D01*
Y7000D01*
D02*
G37*
G36*
X270293Y16783D02*
X270406Y16769D01*
X270547Y16755D01*
X270702Y16727D01*
X270857Y16699D01*
X271224Y16600D01*
X271590Y16459D01*
X271773Y16374D01*
X271957Y16276D01*
X272126Y16149D01*
X272281Y16008D01*
X272295Y15994D01*
X272323Y15980D01*
X272351Y15923D01*
X272408Y15867D01*
X272478Y15797D01*
X272549Y15698D01*
X272619Y15599D01*
X272704Y15472D01*
X272845Y15204D01*
X272986Y14866D01*
X273042Y14697D01*
X273070Y14500D01*
X273099Y14302D01*
X273113Y14091D01*
Y14063D01*
Y13992D01*
X273099Y13879D01*
X273085Y13724D01*
X273056Y13555D01*
X273000Y13358D01*
X272944Y13146D01*
X272859Y12935D01*
X272845Y12907D01*
X272817Y12836D01*
X272760Y12723D01*
X272676Y12568D01*
X272563Y12399D01*
X272422Y12188D01*
X272253Y11976D01*
X272055Y11737D01*
X272027Y11708D01*
X271957Y11624D01*
X271886Y11553D01*
X271816Y11483D01*
X271731Y11398D01*
X271618Y11286D01*
X271506Y11173D01*
X271365Y11046D01*
X271224Y10905D01*
X271055Y10750D01*
X270871Y10595D01*
X270674Y10411D01*
X270448Y10228D01*
X270223Y10031D01*
X270209Y10017D01*
X270181Y9989D01*
X270124Y9946D01*
X270054Y9890D01*
X269969Y9805D01*
X269870Y9721D01*
X269645Y9538D01*
X269405Y9326D01*
X269180Y9115D01*
X268982Y8931D01*
X268898Y8861D01*
X268827Y8790D01*
X268813Y8776D01*
X268771Y8734D01*
X268715Y8678D01*
X268644Y8593D01*
X268573Y8494D01*
X268489Y8396D01*
X268320Y8156D01*
X273127D01*
Y7000D01*
X266656D01*
Y7014D01*
Y7071D01*
Y7155D01*
X266670Y7268D01*
X266684Y7395D01*
X266713Y7536D01*
X266741Y7677D01*
X266797Y7832D01*
Y7846D01*
X266811Y7860D01*
X266840Y7944D01*
X266896Y8071D01*
X266980Y8241D01*
X267093Y8438D01*
X267234Y8663D01*
X267389Y8889D01*
X267587Y9129D01*
Y9143D01*
X267615Y9157D01*
X267685Y9241D01*
X267812Y9368D01*
X267995Y9552D01*
X268207Y9763D01*
X268475Y10017D01*
X268799Y10299D01*
X269151Y10595D01*
X269166Y10609D01*
X269222Y10651D01*
X269307Y10722D01*
X269405Y10806D01*
X269532Y10919D01*
X269687Y11046D01*
X269842Y11187D01*
X270026Y11342D01*
X270378Y11680D01*
X270730Y12019D01*
X270900Y12188D01*
X271055Y12357D01*
X271196Y12512D01*
X271308Y12667D01*
Y12681D01*
X271336Y12695D01*
X271365Y12737D01*
X271393Y12794D01*
X271492Y12949D01*
X271604Y13132D01*
X271703Y13358D01*
X271802Y13597D01*
X271858Y13865D01*
X271886Y14119D01*
Y14133D01*
Y14147D01*
X271872Y14232D01*
X271858Y14373D01*
X271816Y14528D01*
X271759Y14725D01*
X271661Y14923D01*
X271534Y15120D01*
X271365Y15317D01*
X271336Y15345D01*
X271266Y15402D01*
X271167Y15472D01*
X271012Y15571D01*
X270815Y15656D01*
X270589Y15740D01*
X270322Y15797D01*
X270026Y15811D01*
X269941D01*
X269884Y15797D01*
X269715Y15783D01*
X269518Y15740D01*
X269307Y15684D01*
X269067Y15585D01*
X268841Y15458D01*
X268630Y15289D01*
X268602Y15261D01*
X268545Y15190D01*
X268461Y15078D01*
X268376Y14908D01*
X268277Y14711D01*
X268193Y14457D01*
X268137Y14175D01*
X268108Y13851D01*
X266882Y13978D01*
Y13992D01*
X266896Y14034D01*
Y14105D01*
X266910Y14204D01*
X266938Y14316D01*
X266966Y14443D01*
X267009Y14598D01*
X267051Y14753D01*
X267164Y15092D01*
X267333Y15430D01*
X267432Y15599D01*
X267558Y15768D01*
X267685Y15923D01*
X267826Y16064D01*
X267840Y16078D01*
X267869Y16093D01*
X267911Y16135D01*
X267981Y16177D01*
X268066Y16234D01*
X268165Y16290D01*
X268277Y16360D01*
X268418Y16431D01*
X268573Y16501D01*
X268743Y16572D01*
X268926Y16628D01*
X269123Y16685D01*
X269335Y16727D01*
X269560Y16769D01*
X269800Y16783D01*
X270054Y16797D01*
X270195D01*
X270293Y16783D01*
D02*
G37*
G36*
X255125D02*
X255238Y16769D01*
X255379Y16755D01*
X255534Y16727D01*
X255689Y16699D01*
X256055Y16600D01*
X256422Y16459D01*
X256605Y16374D01*
X256788Y16276D01*
X256958Y16149D01*
X257113Y16008D01*
X257127Y15994D01*
X257155Y15980D01*
X257183Y15923D01*
X257239Y15867D01*
X257310Y15797D01*
X257381Y15698D01*
X257451Y15599D01*
X257536Y15472D01*
X257677Y15204D01*
X257817Y14866D01*
X257874Y14697D01*
X257902Y14500D01*
X257930Y14302D01*
X257944Y14091D01*
Y14063D01*
Y13992D01*
X257930Y13879D01*
X257916Y13724D01*
X257888Y13555D01*
X257832Y13358D01*
X257775Y13146D01*
X257691Y12935D01*
X257677Y12907D01*
X257648Y12836D01*
X257592Y12723D01*
X257507Y12568D01*
X257395Y12399D01*
X257254Y12188D01*
X257084Y11976D01*
X256887Y11737D01*
X256859Y11708D01*
X256788Y11624D01*
X256718Y11553D01*
X256647Y11483D01*
X256563Y11398D01*
X256450Y11286D01*
X256337Y11173D01*
X256196Y11046D01*
X256055Y10905D01*
X255886Y10750D01*
X255703Y10595D01*
X255506Y10411D01*
X255280Y10228D01*
X255054Y10031D01*
X255040Y10017D01*
X255012Y9989D01*
X254956Y9946D01*
X254885Y9890D01*
X254801Y9805D01*
X254702Y9721D01*
X254477Y9538D01*
X254237Y9326D01*
X254011Y9115D01*
X253814Y8931D01*
X253729Y8861D01*
X253659Y8790D01*
X253645Y8776D01*
X253603Y8734D01*
X253546Y8678D01*
X253476Y8593D01*
X253405Y8494D01*
X253321Y8396D01*
X253151Y8156D01*
X257959D01*
Y7000D01*
X251488D01*
Y7014D01*
Y7071D01*
Y7155D01*
X251502Y7268D01*
X251516Y7395D01*
X251544Y7536D01*
X251572Y7677D01*
X251629Y7832D01*
Y7846D01*
X251643Y7860D01*
X251671Y7944D01*
X251728Y8071D01*
X251812Y8241D01*
X251925Y8438D01*
X252066Y8663D01*
X252221Y8889D01*
X252418Y9129D01*
Y9143D01*
X252446Y9157D01*
X252517Y9241D01*
X252644Y9368D01*
X252827Y9552D01*
X253039Y9763D01*
X253307Y10017D01*
X253631Y10299D01*
X253983Y10595D01*
X253997Y10609D01*
X254054Y10651D01*
X254138Y10722D01*
X254237Y10806D01*
X254364Y10919D01*
X254519Y11046D01*
X254674Y11187D01*
X254857Y11342D01*
X255210Y11680D01*
X255562Y12019D01*
X255731Y12188D01*
X255886Y12357D01*
X256027Y12512D01*
X256140Y12667D01*
Y12681D01*
X256168Y12695D01*
X256196Y12737D01*
X256224Y12794D01*
X256323Y12949D01*
X256436Y13132D01*
X256535Y13358D01*
X256633Y13597D01*
X256690Y13865D01*
X256718Y14119D01*
Y14133D01*
Y14147D01*
X256704Y14232D01*
X256690Y14373D01*
X256647Y14528D01*
X256591Y14725D01*
X256492Y14923D01*
X256366Y15120D01*
X256196Y15317D01*
X256168Y15345D01*
X256098Y15402D01*
X255999Y15472D01*
X255844Y15571D01*
X255647Y15656D01*
X255421Y15740D01*
X255153Y15797D01*
X254857Y15811D01*
X254772D01*
X254716Y15797D01*
X254547Y15783D01*
X254350Y15740D01*
X254138Y15684D01*
X253899Y15585D01*
X253673Y15458D01*
X253461Y15289D01*
X253433Y15261D01*
X253377Y15190D01*
X253292Y15078D01*
X253208Y14908D01*
X253109Y14711D01*
X253025Y14457D01*
X252968Y14175D01*
X252940Y13851D01*
X251714Y13978D01*
Y13992D01*
X251728Y14034D01*
Y14105D01*
X251742Y14204D01*
X251770Y14316D01*
X251798Y14443D01*
X251840Y14598D01*
X251883Y14753D01*
X251995Y15092D01*
X252165Y15430D01*
X252263Y15599D01*
X252390Y15768D01*
X252517Y15923D01*
X252658Y16064D01*
X252672Y16078D01*
X252700Y16093D01*
X252743Y16135D01*
X252813Y16177D01*
X252898Y16234D01*
X252996Y16290D01*
X253109Y16360D01*
X253250Y16431D01*
X253405Y16501D01*
X253574Y16572D01*
X253758Y16628D01*
X253955Y16685D01*
X254166Y16727D01*
X254392Y16769D01*
X254632Y16783D01*
X254885Y16797D01*
X255026D01*
X255125Y16783D01*
D02*
G37*
G36*
X237870Y16741D02*
X237997D01*
X238293Y16727D01*
X238603Y16685D01*
X238942Y16642D01*
X239252Y16572D01*
X239407Y16530D01*
X239534Y16487D01*
X239548D01*
X239562Y16473D01*
X239646Y16431D01*
X239773Y16374D01*
X239928Y16276D01*
X240098Y16149D01*
X240281Y15980D01*
X240450Y15783D01*
X240619Y15557D01*
Y15543D01*
X240633Y15529D01*
X240690Y15444D01*
X240746Y15303D01*
X240831Y15120D01*
X240901Y14908D01*
X240972Y14655D01*
X241014Y14387D01*
X241028Y14091D01*
Y14077D01*
Y14049D01*
Y13992D01*
X241014Y13922D01*
Y13823D01*
X241000Y13724D01*
X240943Y13485D01*
X240859Y13203D01*
X240746Y12907D01*
X240577Y12611D01*
X240464Y12470D01*
X240351Y12329D01*
X240337Y12315D01*
X240323Y12300D01*
X240281Y12258D01*
X240224Y12216D01*
X240154Y12160D01*
X240069Y12103D01*
X239957Y12033D01*
X239844Y11948D01*
X239703Y11878D01*
X239548Y11807D01*
X239379Y11723D01*
X239195Y11652D01*
X238984Y11596D01*
X238772Y11525D01*
X238533Y11483D01*
X238279Y11441D01*
X238307Y11427D01*
X238364Y11398D01*
X238448Y11342D01*
X238561Y11286D01*
X238815Y11130D01*
X238942Y11032D01*
X239054Y10947D01*
X239083Y10919D01*
X239153Y10848D01*
X239266Y10736D01*
X239407Y10595D01*
X239562Y10397D01*
X239745Y10186D01*
X239928Y9932D01*
X240126Y9650D01*
X241803Y7000D01*
X240196D01*
X238913Y9030D01*
Y9044D01*
X238885Y9072D01*
X238857Y9115D01*
X238815Y9171D01*
X238716Y9326D01*
X238589Y9523D01*
X238434Y9735D01*
X238279Y9960D01*
X238124Y10172D01*
X237983Y10369D01*
X237969Y10383D01*
X237927Y10440D01*
X237856Y10524D01*
X237757Y10623D01*
X237546Y10834D01*
X237433Y10933D01*
X237320Y11018D01*
X237306Y11032D01*
X237278Y11046D01*
X237222Y11074D01*
X237137Y11116D01*
X237053Y11159D01*
X236954Y11201D01*
X236728Y11271D01*
X236714D01*
X236686Y11286D01*
X236630D01*
X236559Y11300D01*
X236460Y11314D01*
X236348D01*
X236193Y11328D01*
X234529D01*
Y7000D01*
X233232D01*
Y16755D01*
X237757D01*
X237870Y16741D01*
D02*
G37*
G36*
X223463D02*
X223576D01*
X223830Y16713D01*
X224112Y16685D01*
X224408Y16628D01*
X224704Y16558D01*
X224972Y16459D01*
X224986D01*
X225000Y16445D01*
X225084Y16403D01*
X225211Y16332D01*
X225352Y16234D01*
X225521Y16107D01*
X225704Y15952D01*
X225874Y15754D01*
X226029Y15543D01*
X226043Y15515D01*
X226085Y15430D01*
X226156Y15317D01*
X226226Y15148D01*
X226297Y14951D01*
X226367Y14739D01*
X226409Y14500D01*
X226423Y14260D01*
Y14232D01*
Y14161D01*
X226409Y14034D01*
X226381Y13879D01*
X226339Y13696D01*
X226268Y13499D01*
X226184Y13301D01*
X226071Y13090D01*
X226057Y13062D01*
X226015Y13005D01*
X225930Y12893D01*
X225817Y12780D01*
X225676Y12639D01*
X225507Y12484D01*
X225296Y12343D01*
X225056Y12202D01*
X225070D01*
X225098Y12188D01*
X225141Y12174D01*
X225197Y12145D01*
X225366Y12089D01*
X225564Y11990D01*
X225775Y11863D01*
X226015Y11708D01*
X226226Y11525D01*
X226423Y11300D01*
X226438Y11271D01*
X226494Y11187D01*
X226579Y11060D01*
X226663Y10891D01*
X226748Y10665D01*
X226832Y10426D01*
X226889Y10144D01*
X226903Y9833D01*
Y9819D01*
Y9805D01*
Y9721D01*
X226889Y9580D01*
X226861Y9411D01*
X226832Y9213D01*
X226776Y9002D01*
X226705Y8776D01*
X226607Y8551D01*
X226593Y8522D01*
X226550Y8452D01*
X226494Y8353D01*
X226409Y8212D01*
X226297Y8071D01*
X226184Y7916D01*
X226043Y7761D01*
X225888Y7634D01*
X225874Y7620D01*
X225817Y7578D01*
X225719Y7522D01*
X225592Y7465D01*
X225437Y7381D01*
X225253Y7296D01*
X225056Y7226D01*
X224816Y7155D01*
X224788D01*
X224704Y7127D01*
X224563Y7113D01*
X224379Y7085D01*
X224154Y7056D01*
X223886Y7028D01*
X223590Y7014D01*
X223252Y7000D01*
X219530D01*
Y16755D01*
X223364D01*
X223463Y16741D01*
D02*
G37*
G36*
X180383Y13090D02*
X178113D01*
Y7000D01*
X176915D01*
Y13090D01*
X174645D01*
Y14077D01*
X180383D01*
Y13090D01*
D02*
G37*
G36*
X155981Y14063D02*
X156192Y14049D01*
X156446Y14034D01*
X156700Y14006D01*
X156925Y13950D01*
X157137Y13893D01*
X157165Y13879D01*
X157221Y13865D01*
X157306Y13823D01*
X157433Y13752D01*
X157560Y13668D01*
X157701Y13555D01*
X157842Y13428D01*
X157983Y13273D01*
X157997Y13259D01*
X158039Y13189D01*
X158095Y13104D01*
X158166Y12963D01*
X158236Y12808D01*
X158293Y12625D01*
X158335Y12413D01*
X158349Y12188D01*
Y12160D01*
Y12103D01*
X158335Y12004D01*
X158321Y11892D01*
X158293Y11751D01*
X158265Y11596D01*
X158208Y11441D01*
X158138Y11300D01*
X158124Y11286D01*
X158095Y11243D01*
X158053Y11173D01*
X157983Y11088D01*
X157898Y10990D01*
X157785Y10891D01*
X157658Y10778D01*
X157517Y10679D01*
X157545Y10665D01*
X157602Y10651D01*
X157687Y10609D01*
X157799Y10538D01*
X157940Y10454D01*
X158067Y10341D01*
X158208Y10214D01*
X158335Y10059D01*
X158349Y10045D01*
X158391Y9974D01*
X158448Y9890D01*
X158504Y9749D01*
X158560Y9594D01*
X158617Y9411D01*
X158659Y9199D01*
X158673Y8974D01*
Y8960D01*
Y8931D01*
X158659Y8875D01*
Y8804D01*
X158631Y8720D01*
X158617Y8635D01*
X158560Y8410D01*
X158462Y8170D01*
X158335Y7916D01*
X158166Y7691D01*
X157940Y7479D01*
X157926D01*
X157912Y7465D01*
X157870Y7437D01*
X157813Y7409D01*
X157757Y7366D01*
X157672Y7324D01*
X157574Y7282D01*
X157461Y7240D01*
X157334Y7197D01*
X157193Y7155D01*
X157038Y7113D01*
X156869Y7071D01*
X156686Y7042D01*
X156488Y7014D01*
X156051Y7000D01*
X152879D01*
Y14077D01*
X155882D01*
X155981Y14063D01*
D02*
G37*
G36*
X184668Y14218D02*
X184781Y14204D01*
X184922Y14175D01*
X185077Y14147D01*
X185260Y14105D01*
X185429Y14063D01*
X185627Y13992D01*
X185810Y13922D01*
X186007Y13823D01*
X186205Y13710D01*
X186402Y13583D01*
X186585Y13428D01*
X186754Y13259D01*
X186769Y13245D01*
X186797Y13217D01*
X186839Y13160D01*
X186896Y13076D01*
X186966Y12977D01*
X187036Y12864D01*
X187121Y12723D01*
X187206Y12554D01*
X187290Y12371D01*
X187375Y12174D01*
X187445Y11948D01*
X187516Y11708D01*
X187572Y11441D01*
X187614Y11159D01*
X187643Y10863D01*
X187657Y10538D01*
Y10524D01*
Y10468D01*
Y10369D01*
X187643Y10228D01*
X182356D01*
Y10214D01*
Y10172D01*
X182370Y10115D01*
Y10031D01*
X182384Y9932D01*
X182413Y9819D01*
X182455Y9566D01*
X182540Y9284D01*
X182652Y8974D01*
X182807Y8692D01*
X183005Y8438D01*
X183019D01*
X183033Y8410D01*
X183118Y8339D01*
X183244Y8241D01*
X183414Y8142D01*
X183639Y8029D01*
X183893Y7930D01*
X184175Y7860D01*
X184330Y7846D01*
X184499Y7832D01*
X184612D01*
X184739Y7846D01*
X184894Y7874D01*
X185063Y7916D01*
X185260Y7973D01*
X185443Y8057D01*
X185627Y8170D01*
X185641Y8184D01*
X185711Y8241D01*
X185796Y8325D01*
X185895Y8438D01*
X186007Y8593D01*
X186134Y8790D01*
X186261Y9016D01*
X186374Y9284D01*
X187614Y9129D01*
Y9115D01*
X187600Y9086D01*
X187586Y9030D01*
X187558Y8945D01*
X187516Y8861D01*
X187474Y8748D01*
X187361Y8508D01*
X187220Y8241D01*
X187022Y7959D01*
X186797Y7691D01*
X186515Y7437D01*
X186501D01*
X186473Y7409D01*
X186430Y7381D01*
X186374Y7338D01*
X186289Y7296D01*
X186205Y7254D01*
X186092Y7197D01*
X185965Y7141D01*
X185824Y7085D01*
X185683Y7028D01*
X185331Y6944D01*
X184936Y6873D01*
X184499Y6845D01*
X184344D01*
X184245Y6859D01*
X184118Y6873D01*
X183963Y6901D01*
X183794Y6930D01*
X183611Y6958D01*
X183216Y7071D01*
X183005Y7155D01*
X182807Y7240D01*
X182596Y7352D01*
X182398Y7479D01*
X182215Y7620D01*
X182032Y7789D01*
X182018Y7804D01*
X181990Y7832D01*
X181947Y7888D01*
X181891Y7973D01*
X181821Y8071D01*
X181750Y8184D01*
X181665Y8325D01*
X181581Y8480D01*
X181496Y8663D01*
X181412Y8861D01*
X181341Y9086D01*
X181271Y9326D01*
X181214Y9580D01*
X181172Y9862D01*
X181144Y10158D01*
X181130Y10468D01*
Y10482D01*
Y10553D01*
Y10637D01*
X181144Y10764D01*
X181158Y10919D01*
X181172Y11088D01*
X181200Y11286D01*
X181243Y11483D01*
X181355Y11934D01*
X181426Y12160D01*
X181510Y12399D01*
X181623Y12625D01*
X181750Y12836D01*
X181891Y13048D01*
X182046Y13245D01*
X182060Y13259D01*
X182088Y13287D01*
X182145Y13330D01*
X182215Y13400D01*
X182300Y13470D01*
X182413Y13555D01*
X182540Y13654D01*
X182695Y13738D01*
X182850Y13837D01*
X183033Y13922D01*
X183230Y14006D01*
X183442Y14077D01*
X183667Y14147D01*
X183907Y14189D01*
X184161Y14218D01*
X184429Y14232D01*
X184569D01*
X184668Y14218D01*
D02*
G37*
G36*
X163255D02*
X163368Y14204D01*
X163509Y14175D01*
X163664Y14147D01*
X163847Y14105D01*
X164016Y14063D01*
X164213Y13992D01*
X164397Y13922D01*
X164594Y13823D01*
X164791Y13710D01*
X164989Y13583D01*
X165172Y13428D01*
X165341Y13259D01*
X165355Y13245D01*
X165383Y13217D01*
X165426Y13160D01*
X165482Y13076D01*
X165553Y12977D01*
X165623Y12864D01*
X165708Y12723D01*
X165792Y12554D01*
X165877Y12371D01*
X165961Y12174D01*
X166032Y11948D01*
X166102Y11708D01*
X166159Y11441D01*
X166201Y11159D01*
X166229Y10863D01*
X166243Y10538D01*
Y10524D01*
Y10468D01*
Y10369D01*
X166229Y10228D01*
X160943D01*
Y10214D01*
Y10172D01*
X160957Y10115D01*
Y10031D01*
X160971Y9932D01*
X160999Y9819D01*
X161042Y9566D01*
X161126Y9284D01*
X161239Y8974D01*
X161394Y8692D01*
X161591Y8438D01*
X161605D01*
X161620Y8410D01*
X161704Y8339D01*
X161831Y8241D01*
X162000Y8142D01*
X162226Y8029D01*
X162479Y7930D01*
X162761Y7860D01*
X162917Y7846D01*
X163086Y7832D01*
X163198D01*
X163325Y7846D01*
X163480Y7874D01*
X163650Y7916D01*
X163847Y7973D01*
X164030Y8057D01*
X164213Y8170D01*
X164228Y8184D01*
X164298Y8241D01*
X164383Y8325D01*
X164481Y8438D01*
X164594Y8593D01*
X164721Y8790D01*
X164848Y9016D01*
X164961Y9284D01*
X166201Y9129D01*
Y9115D01*
X166187Y9086D01*
X166173Y9030D01*
X166145Y8945D01*
X166102Y8861D01*
X166060Y8748D01*
X165947Y8508D01*
X165806Y8241D01*
X165609Y7959D01*
X165383Y7691D01*
X165102Y7437D01*
X165087D01*
X165059Y7409D01*
X165017Y7381D01*
X164961Y7338D01*
X164876Y7296D01*
X164791Y7254D01*
X164679Y7197D01*
X164552Y7141D01*
X164411Y7085D01*
X164270Y7028D01*
X163917Y6944D01*
X163523Y6873D01*
X163086Y6845D01*
X162931D01*
X162832Y6859D01*
X162705Y6873D01*
X162550Y6901D01*
X162381Y6930D01*
X162197Y6958D01*
X161803Y7071D01*
X161591Y7155D01*
X161394Y7240D01*
X161183Y7352D01*
X160985Y7479D01*
X160802Y7620D01*
X160619Y7789D01*
X160605Y7804D01*
X160576Y7832D01*
X160534Y7888D01*
X160478Y7973D01*
X160407Y8071D01*
X160337Y8184D01*
X160252Y8325D01*
X160168Y8480D01*
X160083Y8663D01*
X159998Y8861D01*
X159928Y9086D01*
X159857Y9326D01*
X159801Y9580D01*
X159759Y9862D01*
X159731Y10158D01*
X159717Y10468D01*
Y10482D01*
Y10553D01*
Y10637D01*
X159731Y10764D01*
X159745Y10919D01*
X159759Y11088D01*
X159787Y11286D01*
X159829Y11483D01*
X159942Y11934D01*
X160012Y12160D01*
X160097Y12399D01*
X160210Y12625D01*
X160337Y12836D01*
X160478Y13048D01*
X160633Y13245D01*
X160647Y13259D01*
X160675Y13287D01*
X160732Y13330D01*
X160802Y13400D01*
X160886Y13470D01*
X160999Y13555D01*
X161126Y13654D01*
X161281Y13738D01*
X161436Y13837D01*
X161620Y13922D01*
X161817Y14006D01*
X162028Y14077D01*
X162254Y14147D01*
X162494Y14189D01*
X162747Y14218D01*
X163015Y14232D01*
X163156D01*
X163255Y14218D01*
D02*
G37*
G36*
X140869D02*
X140996Y14204D01*
X141137Y14175D01*
X141292Y14147D01*
X141475Y14119D01*
X141856Y13992D01*
X142053Y13922D01*
X142250Y13823D01*
X142448Y13724D01*
X142645Y13583D01*
X142828Y13442D01*
X143012Y13273D01*
X143026Y13259D01*
X143054Y13231D01*
X143096Y13175D01*
X143153Y13104D01*
X143223Y13005D01*
X143308Y12879D01*
X143392Y12737D01*
X143477Y12582D01*
X143561Y12413D01*
X143646Y12202D01*
X143730Y11990D01*
X143801Y11751D01*
X143857Y11497D01*
X143900Y11229D01*
X143928Y10947D01*
X143942Y10637D01*
Y10623D01*
Y10581D01*
Y10510D01*
Y10411D01*
X143928Y10299D01*
X143914Y10158D01*
Y10017D01*
X143885Y9862D01*
X143843Y9509D01*
X143759Y9157D01*
X143660Y8804D01*
X143519Y8480D01*
Y8466D01*
X143505Y8452D01*
X143477Y8410D01*
X143448Y8353D01*
X143350Y8212D01*
X143223Y8043D01*
X143054Y7846D01*
X142842Y7649D01*
X142603Y7451D01*
X142321Y7268D01*
X142307D01*
X142293Y7254D01*
X142250Y7226D01*
X142180Y7197D01*
X142109Y7169D01*
X142025Y7141D01*
X141813Y7056D01*
X141574Y6986D01*
X141278Y6915D01*
X140968Y6859D01*
X140629Y6845D01*
X140488D01*
X140375Y6859D01*
X140248Y6873D01*
X140107Y6901D01*
X139938Y6930D01*
X139769Y6958D01*
X139389Y7071D01*
X139177Y7155D01*
X138980Y7240D01*
X138782Y7352D01*
X138585Y7479D01*
X138402Y7620D01*
X138218Y7789D01*
X138204Y7804D01*
X138176Y7832D01*
X138134Y7888D01*
X138078Y7973D01*
X138007Y8071D01*
X137937Y8184D01*
X137852Y8325D01*
X137767Y8494D01*
X137683Y8678D01*
X137598Y8889D01*
X137528Y9115D01*
X137457Y9354D01*
X137401Y9622D01*
X137359Y9904D01*
X137330Y10214D01*
X137316Y10538D01*
Y10567D01*
Y10623D01*
X137330Y10722D01*
Y10863D01*
X137345Y11018D01*
X137373Y11215D01*
X137401Y11412D01*
X137457Y11638D01*
X137514Y11863D01*
X137584Y12103D01*
X137669Y12357D01*
X137781Y12596D01*
X137894Y12822D01*
X138049Y13048D01*
X138204Y13259D01*
X138402Y13442D01*
X138416Y13456D01*
X138444Y13470D01*
X138500Y13513D01*
X138571Y13569D01*
X138656Y13626D01*
X138768Y13696D01*
X138881Y13767D01*
X139022Y13837D01*
X139177Y13908D01*
X139346Y13978D01*
X139727Y14105D01*
X140164Y14204D01*
X140389Y14218D01*
X140629Y14232D01*
X140770D01*
X140869Y14218D01*
D02*
G37*
G36*
X299869Y16783D02*
X300052Y16755D01*
X300264Y16713D01*
X300489Y16657D01*
X300729Y16586D01*
X300954Y16473D01*
X300968D01*
X300982Y16459D01*
X301053Y16417D01*
X301166Y16346D01*
X301307Y16248D01*
X301462Y16107D01*
X301631Y15952D01*
X301786Y15768D01*
X301941Y15557D01*
X301955Y15529D01*
X302012Y15458D01*
X302068Y15331D01*
X302167Y15148D01*
X302251Y14937D01*
X302364Y14697D01*
X302463Y14415D01*
X302547Y14105D01*
Y14091D01*
X302561Y14063D01*
X302575Y14020D01*
X302590Y13950D01*
X302604Y13865D01*
X302618Y13767D01*
X302646Y13640D01*
X302660Y13499D01*
X302688Y13344D01*
X302702Y13175D01*
X302716Y12977D01*
X302745Y12780D01*
X302759Y12554D01*
Y12329D01*
X302773Y12075D01*
Y11807D01*
Y11793D01*
Y11737D01*
Y11638D01*
Y11525D01*
X302759Y11370D01*
Y11201D01*
X302745Y11018D01*
X302731Y10820D01*
X302688Y10369D01*
X302618Y9904D01*
X302533Y9453D01*
X302477Y9241D01*
X302406Y9030D01*
Y9016D01*
X302392Y8988D01*
X302364Y8931D01*
X302336Y8861D01*
X302308Y8762D01*
X302251Y8663D01*
X302139Y8424D01*
X301998Y8170D01*
X301814Y7888D01*
X301603Y7634D01*
X301349Y7395D01*
X301335D01*
X301321Y7367D01*
X301278Y7338D01*
X301222Y7310D01*
X301152Y7268D01*
X301081Y7211D01*
X300870Y7113D01*
X300616Y7014D01*
X300320Y6916D01*
X299967Y6859D01*
X299587Y6831D01*
X299446D01*
X299347Y6845D01*
X299235Y6859D01*
X299093Y6887D01*
X298938Y6916D01*
X298769Y6958D01*
X298600Y7014D01*
X298417Y7071D01*
X298234Y7155D01*
X298050Y7254D01*
X297867Y7367D01*
X297684Y7508D01*
X297515Y7663D01*
X297360Y7832D01*
X297346Y7846D01*
X297317Y7888D01*
X297275Y7959D01*
X297204Y8071D01*
X297134Y8198D01*
X297064Y8367D01*
X296965Y8565D01*
X296880Y8790D01*
X296796Y9044D01*
X296711Y9340D01*
X296626Y9664D01*
X296556Y10031D01*
X296486Y10426D01*
X296443Y10848D01*
X296415Y11314D01*
X296401Y11807D01*
Y11821D01*
Y11878D01*
Y11976D01*
Y12089D01*
X296415Y12244D01*
Y12413D01*
X296429Y12596D01*
X296443Y12808D01*
X296486Y13245D01*
X296556Y13710D01*
X296641Y14175D01*
X296697Y14387D01*
X296753Y14598D01*
Y14612D01*
X296768Y14641D01*
X296796Y14697D01*
X296824Y14768D01*
X296852Y14866D01*
X296908Y14965D01*
X297021Y15204D01*
X297162Y15458D01*
X297346Y15726D01*
X297557Y15994D01*
X297811Y16220D01*
X297825D01*
X297839Y16248D01*
X297881Y16276D01*
X297938Y16304D01*
X298008Y16360D01*
X298093Y16403D01*
X298304Y16516D01*
X298558Y16614D01*
X298854Y16713D01*
X299206Y16769D01*
X299587Y16797D01*
X299714D01*
X299869Y16783D01*
D02*
G37*
G36*
X340812Y192841D02*
X336342Y188400D01*
X335842Y188927D01*
Y190482D01*
X340562Y192841D01*
X340812D01*
D02*
G37*
G36*
X374376Y214607D02*
X374376D01*
X374376Y158000D01*
X347641D01*
X347725Y158055D01*
X347808Y158250D01*
X347975Y158500D01*
X348169Y158861D01*
X348363Y159305D01*
X348613Y159804D01*
X348891Y160415D01*
X349196Y161054D01*
X349529Y161748D01*
X349862Y162497D01*
X350223Y163302D01*
X350584Y164108D01*
X351362Y165829D01*
X352139Y167606D01*
X352916Y169382D01*
X353305Y170271D01*
X353666Y171104D01*
X354027Y171937D01*
X354388Y172714D01*
X354693Y173463D01*
X354998Y174158D01*
X355276Y174796D01*
X355526Y175379D01*
X355748Y175879D01*
X355914Y176323D01*
X356081Y176656D01*
X356192Y176906D01*
X356248Y177073D01*
X356275Y177128D01*
X368352D01*
X368491Y177295D01*
X368657Y177517D01*
X368852Y177794D01*
X369018Y178128D01*
X369213Y178489D01*
X369407Y178877D01*
X369796Y179710D01*
X369990Y180126D01*
X370157Y180515D01*
X370323Y180876D01*
X370434Y181209D01*
X370545Y181459D01*
X370628Y181681D01*
X370684Y181792D01*
X370712Y181848D01*
X370434D01*
X370184Y182098D01*
X358635D01*
X359940Y185262D01*
X371739D01*
X371878Y185318D01*
X372044Y185457D01*
X372239Y185707D01*
X372433Y186012D01*
X372655Y186345D01*
X372877Y186762D01*
X373321Y187622D01*
X373710Y188483D01*
X373904Y188899D01*
X374071Y189232D01*
X374182Y189538D01*
X374293Y189788D01*
X374349Y189926D01*
X374376Y189982D01*
X374099D01*
X373849Y190232D01*
X362300D01*
X363632Y193369D01*
X363355D01*
X363105Y193647D01*
X342117D01*
Y193897D01*
X342561Y194035D01*
X342922Y194174D01*
X343255Y194313D01*
X343560Y194452D01*
X343810Y194563D01*
X344032Y194674D01*
X344199Y194757D01*
X344365Y194840D01*
X344477Y194924D01*
X344560Y195007D01*
X344698Y195118D01*
X344754Y195173D01*
Y195201D01*
X344976Y195229D01*
X345198Y195285D01*
X345393Y195368D01*
X345615Y195479D01*
X346003Y195784D01*
X346392Y196201D01*
X346753Y196673D01*
X347114Y197200D01*
X347419Y197755D01*
X347725Y198366D01*
X348002Y198949D01*
X348224Y199505D01*
X348446Y200032D01*
X348613Y200532D01*
X348752Y200920D01*
X348863Y201226D01*
X348891Y201337D01*
X348918Y201420D01*
X348946Y201476D01*
Y201503D01*
X348752Y201420D01*
X348447Y201281D01*
X348086Y201115D01*
X347614Y200893D01*
X347086Y200643D01*
X346475Y200310D01*
X345781Y199976D01*
X345004Y199588D01*
X344171Y199171D01*
X343283Y198699D01*
X342339Y198200D01*
X341312Y197672D01*
X340229Y197117D01*
X339091Y196534D01*
X337925Y195895D01*
X336703Y195257D01*
X335426Y194590D01*
X334121Y193897D01*
X332761Y193202D01*
X331373Y192453D01*
X329957Y191703D01*
X328485Y190954D01*
X325515Y189371D01*
X322433Y187733D01*
X319324Y186068D01*
X316131Y184402D01*
X312966Y182708D01*
X309802Y181015D01*
X306664Y179349D01*
X303583Y177711D01*
X300584Y176101D01*
X299113Y175324D01*
X297669Y174546D01*
X296281Y173797D01*
X294921Y173075D01*
X293588Y172353D01*
X292283Y171687D01*
X291062Y171021D01*
X289840Y170382D01*
X288702Y169743D01*
X287619Y169160D01*
X286565Y168605D01*
X285593Y168078D01*
X284677Y167606D01*
X283816Y167134D01*
X283039Y166717D01*
X282317Y166329D01*
X281678Y165996D01*
X281095Y165690D01*
X280596Y165413D01*
X280207Y165190D01*
X279874Y165024D01*
X279652Y164913D01*
X279513Y164830D01*
X279457Y164802D01*
X279235Y164774D01*
X279013Y164718D01*
X278791Y164635D01*
X278541Y164524D01*
X278125Y164219D01*
X277681Y163830D01*
X277292Y163330D01*
X276903Y162803D01*
X276515Y162248D01*
X276181Y161665D01*
X275876Y161054D01*
X275598Y160499D01*
X275349Y159971D01*
X275126Y159499D01*
X274960Y159083D01*
X274849Y158777D01*
X274793Y158666D01*
X274766Y158583D01*
X274738Y158527D01*
Y158500D01*
Y158250D01*
X274932Y158333D01*
X275182Y158444D01*
X275432Y158555D01*
X275709Y158666D01*
X276376Y158972D01*
X277098Y159360D01*
X277958Y159749D01*
X278874Y160221D01*
X279846Y160721D01*
X280901Y161248D01*
X282012Y161831D01*
X283178Y162414D01*
X284371Y163025D01*
X285593Y163664D01*
X288119Y164996D01*
X290646Y166301D01*
X291895Y166967D01*
X293116Y167633D01*
X294338Y168272D01*
X295504Y168883D01*
X296614Y169466D01*
X297697Y170049D01*
X298697Y170576D01*
X299641Y171076D01*
X300501Y171520D01*
X301251Y171937D01*
X301945Y172297D01*
X302222Y172464D01*
X302500Y172603D01*
X302750Y172742D01*
X302972Y172853D01*
X303139Y172964D01*
X303305Y173047D01*
X303416Y173103D01*
X303499Y173158D01*
X303555Y173186D01*
X303860D01*
X297281Y158250D01*
X297558D01*
X297808Y158000D01*
X253000Y158000D01*
Y214607D01*
X374376D01*
Y214607D01*
D02*
G37*
G36*
X357580Y189982D02*
X345004Y161665D01*
X330845D01*
X334787Y171631D01*
X334510D01*
X325348Y164552D01*
X322211Y171631D01*
X321934D01*
X321850Y171548D01*
X321739Y171437D01*
X321628Y171270D01*
X321489Y171048D01*
X321351Y170798D01*
X321212Y170493D01*
X321045Y170188D01*
X320851Y169854D01*
X320490Y169077D01*
X320074Y168244D01*
X319685Y167356D01*
X319268Y166440D01*
X318880Y165551D01*
X318491Y164663D01*
X318158Y163858D01*
X317991Y163497D01*
X317852Y163136D01*
X317714Y162831D01*
X317575Y162525D01*
X317464Y162275D01*
X317381Y162081D01*
X317325Y161887D01*
X317269Y161776D01*
X317214Y161692D01*
Y161665D01*
X303583D01*
X310135Y176601D01*
X330068Y187345D01*
X332150Y179210D01*
X343949Y189982D01*
X357580D01*
D02*
G37*
G36*
X322211Y162442D02*
X323238Y159555D01*
X323766D01*
X326403Y161914D01*
X326653D01*
X325071Y158250D01*
X325348D01*
X325598Y158000D01*
X319574D01*
X319713Y158055D01*
X319879Y158194D01*
X320074Y158416D01*
X320268Y158694D01*
X320462Y159027D01*
X320657Y159416D01*
X321045Y160221D01*
X321378Y161026D01*
X321545Y161415D01*
X321684Y161748D01*
X321795Y162026D01*
X321850Y162248D01*
X321906Y162386D01*
X321934Y162442D01*
X322211D01*
D02*
G37*
%LPC*%
G36*
X192140Y13287D02*
X192069D01*
X192013Y13273D01*
X191872Y13245D01*
X191688Y13203D01*
X191477Y13118D01*
X191252Y12991D01*
X191125Y12907D01*
X191012Y12808D01*
X190899Y12695D01*
X190786Y12568D01*
Y12554D01*
X190758Y12540D01*
X190730Y12498D01*
X190702Y12442D01*
X190659Y12357D01*
X190603Y12272D01*
X190547Y12160D01*
X190504Y12047D01*
X190448Y11906D01*
X190392Y11751D01*
X190349Y11581D01*
X190293Y11398D01*
X190265Y11187D01*
X190236Y10975D01*
X190208Y10750D01*
Y10496D01*
Y10482D01*
Y10440D01*
Y10369D01*
X190222Y10271D01*
Y10158D01*
X190236Y10031D01*
X190279Y9735D01*
X190349Y9396D01*
X190434Y9072D01*
X190575Y8748D01*
X190659Y8607D01*
X190758Y8480D01*
X190786Y8452D01*
X190857Y8382D01*
X190970Y8269D01*
X191125Y8156D01*
X191322Y8043D01*
X191548Y7930D01*
X191801Y7860D01*
X191942Y7846D01*
X192083Y7832D01*
X192168D01*
X192224Y7846D01*
X192365Y7874D01*
X192563Y7916D01*
X192774Y8001D01*
X192999Y8114D01*
X193225Y8283D01*
X193338Y8382D01*
X193451Y8494D01*
Y8508D01*
X193479Y8522D01*
X193507Y8565D01*
X193535Y8621D01*
X193592Y8692D01*
X193634Y8790D01*
X193690Y8889D01*
X193747Y9016D01*
X193789Y9143D01*
X193845Y9312D01*
X193902Y9481D01*
X193944Y9664D01*
X193972Y9876D01*
X194000Y10101D01*
X194029Y10341D01*
Y10595D01*
Y10609D01*
Y10651D01*
Y10722D01*
X194014Y10820D01*
Y10933D01*
X194000Y11060D01*
X193958Y11356D01*
X193888Y11680D01*
X193789Y12004D01*
X193648Y12329D01*
X193563Y12484D01*
X193465Y12611D01*
Y12625D01*
X193437Y12639D01*
X193366Y12723D01*
X193253Y12822D01*
X193098Y12949D01*
X192901Y13076D01*
X192675Y13189D01*
X192421Y13259D01*
X192281Y13273D01*
X192140Y13287D01*
D02*
G37*
G36*
X170726D02*
X170656D01*
X170599Y13273D01*
X170458Y13245D01*
X170275Y13203D01*
X170064Y13118D01*
X169838Y12991D01*
X169711Y12907D01*
X169599Y12808D01*
X169486Y12695D01*
X169373Y12568D01*
Y12554D01*
X169345Y12540D01*
X169317Y12498D01*
X169288Y12442D01*
X169246Y12357D01*
X169190Y12272D01*
X169133Y12160D01*
X169091Y12047D01*
X169035Y11906D01*
X168978Y11751D01*
X168936Y11581D01*
X168880Y11398D01*
X168851Y11187D01*
X168823Y10975D01*
X168795Y10750D01*
Y10496D01*
Y10482D01*
Y10440D01*
Y10369D01*
X168809Y10271D01*
Y10158D01*
X168823Y10031D01*
X168865Y9735D01*
X168936Y9396D01*
X169021Y9072D01*
X169161Y8748D01*
X169246Y8607D01*
X169345Y8480D01*
X169373Y8452D01*
X169443Y8382D01*
X169556Y8269D01*
X169711Y8156D01*
X169909Y8043D01*
X170134Y7930D01*
X170388Y7860D01*
X170529Y7846D01*
X170670Y7832D01*
X170754D01*
X170811Y7846D01*
X170952Y7874D01*
X171149Y7916D01*
X171361Y8001D01*
X171586Y8114D01*
X171812Y8283D01*
X171924Y8382D01*
X172037Y8494D01*
Y8508D01*
X172065Y8522D01*
X172094Y8565D01*
X172122Y8621D01*
X172178Y8692D01*
X172220Y8790D01*
X172277Y8889D01*
X172333Y9016D01*
X172376Y9143D01*
X172432Y9312D01*
X172488Y9481D01*
X172531Y9664D01*
X172559Y9876D01*
X172587Y10101D01*
X172615Y10341D01*
Y10595D01*
Y10609D01*
Y10651D01*
Y10722D01*
X172601Y10820D01*
Y10933D01*
X172587Y11060D01*
X172545Y11356D01*
X172474Y11680D01*
X172376Y12004D01*
X172235Y12329D01*
X172150Y12484D01*
X172051Y12611D01*
Y12625D01*
X172023Y12639D01*
X171953Y12723D01*
X171840Y12822D01*
X171685Y12949D01*
X171488Y13076D01*
X171262Y13189D01*
X171008Y13259D01*
X170867Y13273D01*
X170726Y13287D01*
D02*
G37*
G36*
X237602Y15670D02*
X234529D01*
Y12442D01*
X237433D01*
X237602Y12456D01*
X237800Y12470D01*
X238025Y12484D01*
X238251Y12512D01*
X238476Y12554D01*
X238674Y12611D01*
X238702Y12625D01*
X238758Y12653D01*
X238843Y12695D01*
X238956Y12752D01*
X239083Y12836D01*
X239209Y12935D01*
X239336Y13062D01*
X239435Y13203D01*
X239449Y13217D01*
X239477Y13273D01*
X239520Y13358D01*
X239576Y13471D01*
X239618Y13597D01*
X239661Y13738D01*
X239689Y13908D01*
X239703Y14077D01*
Y14091D01*
Y14105D01*
X239689Y14189D01*
X239675Y14316D01*
X239646Y14485D01*
X239576Y14655D01*
X239491Y14852D01*
X239364Y15035D01*
X239195Y15219D01*
X239167Y15233D01*
X239097Y15289D01*
X238984Y15360D01*
X238801Y15444D01*
X238589Y15529D01*
X238307Y15599D01*
X237983Y15656D01*
X237602Y15670D01*
D02*
G37*
G36*
X223139Y15599D02*
X220827D01*
Y12667D01*
X223223D01*
X223407Y12681D01*
X223604Y12695D01*
X223801Y12709D01*
X223999Y12737D01*
X224154Y12766D01*
X224182Y12780D01*
X224238Y12794D01*
X224323Y12836D01*
X224436Y12893D01*
X224549Y12949D01*
X224675Y13034D01*
X224802Y13146D01*
X224901Y13259D01*
X224915Y13273D01*
X224943Y13316D01*
X224986Y13400D01*
X225028Y13499D01*
X225070Y13612D01*
X225112Y13752D01*
X225141Y13922D01*
X225155Y14105D01*
Y14133D01*
Y14189D01*
X225141Y14274D01*
X225126Y14387D01*
X225098Y14528D01*
X225056Y14669D01*
X225000Y14810D01*
X224915Y14951D01*
X224901Y14965D01*
X224873Y15007D01*
X224816Y15078D01*
X224746Y15148D01*
X224647Y15233D01*
X224534Y15317D01*
X224394Y15402D01*
X224238Y15458D01*
X224224D01*
X224154Y15486D01*
X224055Y15501D01*
X223900Y15529D01*
X223689Y15557D01*
X223449Y15571D01*
X223139Y15599D01*
D02*
G37*
G36*
X223393Y11511D02*
X220827D01*
Y8156D01*
X223604D01*
X223900Y8170D01*
X224027Y8184D01*
X224140Y8198D01*
X224154D01*
X224210Y8212D01*
X224295Y8227D01*
X224394Y8255D01*
X224633Y8339D01*
X224873Y8452D01*
X224887Y8466D01*
X224929Y8494D01*
X224986Y8537D01*
X225056Y8593D01*
X225126Y8678D01*
X225225Y8762D01*
X225296Y8875D01*
X225380Y9002D01*
X225394Y9016D01*
X225408Y9058D01*
X225437Y9143D01*
X225479Y9241D01*
X225521Y9354D01*
X225550Y9495D01*
X225564Y9664D01*
X225578Y9833D01*
Y9862D01*
Y9918D01*
X225564Y10031D01*
X225535Y10158D01*
X225507Y10299D01*
X225451Y10454D01*
X225380Y10609D01*
X225282Y10764D01*
X225268Y10778D01*
X225225Y10834D01*
X225169Y10905D01*
X225084Y10990D01*
X224972Y11088D01*
X224830Y11187D01*
X224675Y11271D01*
X224492Y11342D01*
X224464Y11356D01*
X224408Y11370D01*
X224281Y11398D01*
X224126Y11427D01*
X223928Y11455D01*
X223689Y11483D01*
X223393Y11511D01*
D02*
G37*
G36*
X155375Y13090D02*
X154078D01*
Y11102D01*
X155586D01*
X155755Y11116D01*
X155924D01*
X156094Y11130D01*
X156249Y11144D01*
X156376Y11173D01*
X156390D01*
X156432Y11187D01*
X156488Y11215D01*
X156559Y11243D01*
X156728Y11342D01*
X156812Y11412D01*
X156897Y11497D01*
X156911Y11511D01*
X156939Y11539D01*
X156968Y11596D01*
X157010Y11666D01*
X157052Y11751D01*
X157094Y11849D01*
X157108Y11962D01*
X157123Y12089D01*
Y12117D01*
Y12174D01*
X157108Y12272D01*
X157080Y12399D01*
X157024Y12526D01*
X156953Y12653D01*
X156855Y12766D01*
X156728Y12864D01*
X156714Y12879D01*
X156657Y12907D01*
X156559Y12935D01*
X156418Y12977D01*
X156220Y13019D01*
X155995Y13062D01*
X155713Y13076D01*
X155375Y13090D01*
D02*
G37*
G36*
X155783Y10115D02*
X154078D01*
Y7987D01*
X155812D01*
X155896Y8001D01*
X155981D01*
X156192Y8015D01*
X156432Y8043D01*
X156657Y8086D01*
X156869Y8142D01*
X156953Y8170D01*
X157038Y8212D01*
X157052Y8227D01*
X157094Y8255D01*
X157165Y8325D01*
X157235Y8410D01*
X157306Y8522D01*
X157376Y8663D01*
X157419Y8833D01*
X157447Y9030D01*
Y9044D01*
Y9086D01*
X157433Y9157D01*
X157419Y9241D01*
X157390Y9340D01*
X157348Y9439D01*
X157292Y9552D01*
X157221Y9664D01*
X157207Y9678D01*
X157179Y9707D01*
X157137Y9763D01*
X157066Y9819D01*
X156982Y9890D01*
X156883Y9946D01*
X156770Y9989D01*
X156643Y10031D01*
X156629D01*
X156573Y10045D01*
X156488Y10059D01*
X156376Y10073D01*
X156220Y10087D01*
X156023Y10101D01*
X155783Y10115D01*
D02*
G37*
G36*
X184443Y13245D02*
X184358D01*
X184302Y13231D01*
X184147Y13217D01*
X183963Y13175D01*
X183738Y13104D01*
X183498Y13005D01*
X183273Y12864D01*
X183047Y12681D01*
X183019Y12653D01*
X182962Y12582D01*
X182864Y12456D01*
X182765Y12286D01*
X182652Y12089D01*
X182554Y11835D01*
X182469Y11539D01*
X182427Y11215D01*
X186388D01*
Y11229D01*
Y11257D01*
X186374Y11300D01*
Y11356D01*
X186346Y11525D01*
X186303Y11708D01*
X186233Y11934D01*
X186162Y12145D01*
X186050Y12357D01*
X185923Y12540D01*
Y12554D01*
X185895Y12568D01*
X185824Y12653D01*
X185697Y12766D01*
X185528Y12893D01*
X185317Y13019D01*
X185063Y13132D01*
X184767Y13217D01*
X184612Y13231D01*
X184443Y13245D01*
D02*
G37*
G36*
X163029D02*
X162945D01*
X162888Y13231D01*
X162733Y13217D01*
X162550Y13175D01*
X162324Y13104D01*
X162085Y13005D01*
X161859Y12864D01*
X161634Y12681D01*
X161605Y12653D01*
X161549Y12582D01*
X161450Y12456D01*
X161352Y12286D01*
X161239Y12089D01*
X161140Y11835D01*
X161056Y11539D01*
X161013Y11215D01*
X164975D01*
Y11229D01*
Y11257D01*
X164961Y11300D01*
Y11356D01*
X164932Y11525D01*
X164890Y11708D01*
X164820Y11934D01*
X164749Y12145D01*
X164636Y12357D01*
X164509Y12540D01*
Y12554D01*
X164481Y12568D01*
X164411Y12653D01*
X164284Y12766D01*
X164115Y12893D01*
X163903Y13019D01*
X163650Y13132D01*
X163354Y13217D01*
X163198Y13231D01*
X163029Y13245D01*
D02*
G37*
G36*
X140629D02*
X140545D01*
X140474Y13231D01*
X140319Y13217D01*
X140107Y13160D01*
X139868Y13076D01*
X139614Y12963D01*
X139375Y12794D01*
X139248Y12681D01*
X139135Y12568D01*
Y12554D01*
X139107Y12540D01*
X139079Y12498D01*
X139036Y12442D01*
X138994Y12371D01*
X138952Y12286D01*
X138895Y12174D01*
X138839Y12061D01*
X138782Y11920D01*
X138726Y11779D01*
X138684Y11610D01*
X138642Y11427D01*
X138599Y11229D01*
X138571Y11018D01*
X138557Y10778D01*
X138543Y10538D01*
Y10524D01*
Y10482D01*
Y10411D01*
X138557Y10313D01*
Y10200D01*
X138571Y10073D01*
X138613Y9777D01*
X138684Y9439D01*
X138797Y9100D01*
X138938Y8776D01*
X139036Y8635D01*
X139135Y8494D01*
X139149D01*
X139163Y8466D01*
X139248Y8396D01*
X139375Y8283D01*
X139544Y8170D01*
X139755Y8043D01*
X140009Y7930D01*
X140305Y7860D01*
X140460Y7846D01*
X140629Y7832D01*
X140714D01*
X140784Y7846D01*
X140939Y7874D01*
X141151Y7916D01*
X141376Y8001D01*
X141630Y8114D01*
X141870Y8283D01*
X141996Y8396D01*
X142109Y8508D01*
X142123Y8522D01*
X142137Y8537D01*
X142166Y8579D01*
X142208Y8635D01*
X142250Y8706D01*
X142307Y8790D01*
X142363Y8903D01*
X142420Y9016D01*
X142476Y9157D01*
X142518Y9312D01*
X142575Y9481D01*
X142617Y9664D01*
X142659Y9876D01*
X142687Y10087D01*
X142716Y10327D01*
Y10581D01*
Y10595D01*
Y10637D01*
Y10707D01*
X142701Y10792D01*
Y10905D01*
X142687Y11032D01*
X142645Y11328D01*
X142575Y11638D01*
X142462Y11976D01*
X142307Y12286D01*
X142222Y12442D01*
X142109Y12568D01*
Y12582D01*
X142081Y12596D01*
X141996Y12681D01*
X141870Y12780D01*
X141700Y12907D01*
X141489Y13033D01*
X141235Y13146D01*
X140953Y13217D01*
X140798Y13231D01*
X140629Y13245D01*
D02*
G37*
G36*
X299573Y15811D02*
X299488D01*
X299432Y15797D01*
X299277Y15768D01*
X299093Y15726D01*
X298882Y15641D01*
X298657Y15515D01*
X298544Y15430D01*
X298431Y15345D01*
X298332Y15233D01*
X298234Y15106D01*
Y15092D01*
X298205Y15064D01*
X298177Y15007D01*
X298135Y14937D01*
X298093Y14824D01*
X298036Y14697D01*
X297994Y14542D01*
X297938Y14359D01*
X297881Y14147D01*
X297825Y13908D01*
X297768Y13640D01*
X297726Y13344D01*
X297684Y13005D01*
X297656Y12639D01*
X297642Y12244D01*
X297627Y11807D01*
Y11779D01*
Y11708D01*
Y11582D01*
X297642Y11412D01*
Y11229D01*
X297656Y11004D01*
X297670Y10764D01*
X297698Y10510D01*
X297768Y9960D01*
X297811Y9693D01*
X297867Y9439D01*
X297924Y9199D01*
X298008Y8974D01*
X298093Y8776D01*
X298191Y8607D01*
Y8593D01*
X298220Y8579D01*
X298290Y8480D01*
X298417Y8353D01*
X298572Y8212D01*
X298783Y8071D01*
X299023Y7944D01*
X299291Y7846D01*
X299432Y7832D01*
X299587Y7818D01*
X299671D01*
X299728Y7832D01*
X299869Y7860D01*
X300066Y7916D01*
X300278Y8015D01*
X300517Y8156D01*
X300630Y8241D01*
X300743Y8353D01*
X300856Y8466D01*
X300968Y8607D01*
Y8621D01*
X300997Y8649D01*
X301025Y8692D01*
X301053Y8762D01*
X301109Y8861D01*
X301152Y8988D01*
X301208Y9129D01*
X301264Y9298D01*
X301307Y9509D01*
X301363Y9735D01*
X301420Y10003D01*
X301462Y10285D01*
X301490Y10623D01*
X301518Y10975D01*
X301546Y11370D01*
Y11807D01*
Y11821D01*
Y11835D01*
Y11906D01*
Y12033D01*
X301532Y12202D01*
Y12385D01*
X301518Y12611D01*
X301504Y12850D01*
X301476Y13118D01*
X301405Y13654D01*
X301363Y13922D01*
X301307Y14175D01*
X301250Y14415D01*
X301166Y14641D01*
X301081Y14838D01*
X300982Y15007D01*
Y15021D01*
X300954Y15035D01*
X300926Y15078D01*
X300884Y15134D01*
X300757Y15261D01*
X300602Y15416D01*
X300390Y15557D01*
X300151Y15684D01*
X300024Y15740D01*
X299883Y15783D01*
X299728Y15797D01*
X299573Y15811D01*
D02*
G37*
G36*
X259802Y214607D02*
X259191Y214357D01*
X258608Y214107D01*
X258053Y213830D01*
X257553Y213524D01*
X257081Y213219D01*
X256637Y212886D01*
X256248Y212553D01*
X255860Y212220D01*
X255526Y211859D01*
X255221Y211498D01*
X254666Y210804D01*
X254222Y210082D01*
X253861Y209360D01*
X253583Y208694D01*
X253361Y208055D01*
X253222Y207472D01*
X253111Y206973D01*
X253056Y206556D01*
X253028Y206390D01*
Y206251D01*
X253000Y206140D01*
Y205973D01*
X253028Y205334D01*
X253111Y204724D01*
X253222Y204113D01*
X253361Y203558D01*
X253555Y203030D01*
X253805Y202558D01*
X254055Y202086D01*
X254360Y201642D01*
X254999Y200837D01*
X255721Y200115D01*
X256526Y199505D01*
X257331Y198977D01*
X258136Y198561D01*
X258913Y198200D01*
X259635Y197894D01*
X260274Y197672D01*
X260579Y197589D01*
X260829Y197506D01*
X261079Y197450D01*
X261273Y197395D01*
X261412Y197367D01*
X261551Y197339D01*
X261606Y197311D01*
X261634D01*
X262328Y197339D01*
X262994Y197422D01*
X263605Y197533D01*
X264188Y197700D01*
X264771Y197894D01*
X265271Y198144D01*
X265771Y198394D01*
X266243Y198699D01*
X266659Y199032D01*
X267075Y199366D01*
X267436Y199754D01*
X267797Y200143D01*
X268408Y200948D01*
X268936Y201781D01*
X269380Y202586D01*
X269741Y203391D01*
X270018Y204168D01*
X270213Y204835D01*
X270296Y205140D01*
X270379Y205390D01*
X270435Y205640D01*
X270462Y205834D01*
X270518Y206001D01*
Y206112D01*
X270546Y206195D01*
Y206223D01*
X270296Y208055D01*
X270046Y208638D01*
X269796Y209221D01*
X269519Y209721D01*
X269241Y210221D01*
X268936Y210665D01*
X268630Y211081D01*
X268297Y211470D01*
X267992Y211831D01*
X267659Y212164D01*
X267325Y212469D01*
X266631Y212997D01*
X265965Y213441D01*
X265299Y213802D01*
X264660Y214052D01*
X264077Y214274D01*
X263550Y214413D01*
X263078Y214496D01*
X262689Y214552D01*
X262411Y214607D01*
X313335Y214607D01*
X259802Y214607D01*
D02*
G37*
G36*
X279735Y209360D02*
X279624Y209249D01*
X279457Y209027D01*
X279263Y208722D01*
X279041Y208333D01*
X278791Y207861D01*
X278514Y207306D01*
X278208Y206723D01*
X277903Y206056D01*
X277570Y205334D01*
X277209Y204585D01*
X276820Y203808D01*
X276459Y202975D01*
X275682Y201281D01*
X274877Y199505D01*
X274099Y197783D01*
X273738Y196923D01*
X273377Y196090D01*
X273016Y195285D01*
X272683Y194507D01*
X272350Y193785D01*
X272073Y193119D01*
X271795Y192481D01*
X271545Y191925D01*
X271351Y191453D01*
X271157Y191037D01*
X271018Y190676D01*
X270907Y190426D01*
X270851Y190287D01*
X270823Y190232D01*
X259024D01*
X258858Y190176D01*
X258691Y190038D01*
X258525Y189788D01*
X258330Y189482D01*
X258136Y189149D01*
X257942Y188733D01*
X257553Y187872D01*
X257220Y187012D01*
X257053Y186595D01*
X256915Y186262D01*
X256803Y185956D01*
X256748Y185707D01*
X256692Y185568D01*
X256665Y185512D01*
Y185263D01*
X268463D01*
X268269Y184707D01*
X268075Y184207D01*
X267908Y183791D01*
X267742Y183430D01*
X267603Y183125D01*
X267464Y182875D01*
X267353Y182653D01*
X267242Y182486D01*
X267159Y182375D01*
X267075Y182264D01*
X267020Y182209D01*
X266964Y182153D01*
X266909Y182098D01*
X255249D01*
X255166Y182042D01*
X254999Y181875D01*
X254832Y181653D01*
X254638Y181320D01*
X254444Y180959D01*
X254249Y180515D01*
X254055Y180071D01*
X253888Y179627D01*
X253694Y179155D01*
X253528Y178711D01*
X253389Y178294D01*
X253250Y177906D01*
X253139Y177600D01*
X253055Y177350D01*
X253028Y177184D01*
X253000Y177156D01*
Y177128D01*
X264771D01*
X263466Y173991D01*
X263744D01*
X263994Y173713D01*
X284982D01*
Y173463D01*
X284427Y173241D01*
X283955Y173075D01*
X283538Y172880D01*
X283178Y172714D01*
X282872Y172575D01*
X282622Y172464D01*
X282428Y172325D01*
X282234Y172242D01*
X282122Y172159D01*
X282012Y172075D01*
X281873Y171964D01*
X281817Y171909D01*
Y171881D01*
X281651Y171853D01*
X281512Y171826D01*
X281345Y171742D01*
X281179Y171631D01*
X280873Y171326D01*
X280568Y170937D01*
X280235Y170493D01*
X279929Y169965D01*
X279652Y169438D01*
X279374Y168883D01*
X279124Y168300D01*
X278874Y167772D01*
X278680Y167245D01*
X278486Y166801D01*
X278347Y166412D01*
X278236Y166107D01*
X278208Y165996D01*
X278180Y165912D01*
X278153Y165884D01*
Y165857D01*
Y165579D01*
X348141Y202808D01*
X348363Y202836D01*
X348585Y202891D01*
X348780Y202975D01*
X349002Y203086D01*
X349418Y203391D01*
X349807Y203808D01*
X350168Y204280D01*
X350501Y204807D01*
X350834Y205362D01*
X351139Y205973D01*
X351417Y206556D01*
X351639Y207111D01*
X351861Y207639D01*
X352028Y208139D01*
X352167Y208527D01*
X352278Y208833D01*
X352305Y208944D01*
X352333Y209027D01*
X352361Y209082D01*
Y209110D01*
X352305D01*
X352194Y209055D01*
X352028Y208999D01*
X351833Y208916D01*
X351584Y208805D01*
X351306Y208666D01*
X350973Y208499D01*
X350612Y208333D01*
X350223Y208111D01*
X349779Y207916D01*
X349307Y207666D01*
X348807Y207417D01*
X348280Y207139D01*
X347725Y206861D01*
X346531Y206251D01*
X345226Y205584D01*
X343866Y204863D01*
X342394Y204085D01*
X340895Y203308D01*
X339341Y202475D01*
X337730Y201642D01*
X334482Y199949D01*
X331262Y198227D01*
X329679Y197395D01*
X328125Y196562D01*
X326625Y195784D01*
X325210Y195007D01*
X323849Y194285D01*
X322600Y193619D01*
X321989Y193314D01*
X321434Y193008D01*
X320906Y192731D01*
X320379Y192453D01*
X319907Y192203D01*
X319463Y191953D01*
X319074Y191759D01*
X318685Y191537D01*
X318352Y191370D01*
X318075Y191204D01*
X317825Y191092D01*
X317603Y190954D01*
X317436Y190870D01*
X317325Y190815D01*
X317242Y190787D01*
X317214Y190759D01*
X316964D01*
X317742Y192148D01*
X318435Y193424D01*
X319018Y194646D01*
X319546Y195757D01*
X319962Y196784D01*
X320323Y197728D01*
X320629Y198588D01*
X320851Y199366D01*
X321045Y200032D01*
X321184Y200643D01*
X321267Y201142D01*
X321351Y201559D01*
X321378Y201864D01*
X321406Y202086D01*
Y202225D01*
Y202281D01*
Y203086D01*
X321378Y203669D01*
X321267Y204196D01*
X321101Y204696D01*
X320879Y205168D01*
X320601Y205584D01*
X320268Y206001D01*
X319907Y206362D01*
X319491Y206723D01*
X319018Y207028D01*
X318547Y207333D01*
X317519Y207833D01*
X316381Y208249D01*
X315243Y208583D01*
X314105Y208833D01*
X312994Y209027D01*
X311939Y209166D01*
X311467Y209221D01*
X310995Y209277D01*
X310579Y209305D01*
X310218Y209332D01*
X309885D01*
X309607Y209360D01*
X279735Y209360D01*
D02*
G37*
%LPD*%
G36*
X262411Y213052D02*
X262856Y213025D01*
X263244Y212997D01*
X263661Y212914D01*
X264022Y212803D01*
X264716Y212497D01*
X265354Y212108D01*
X265910Y211637D01*
X266409Y211137D01*
X266826Y210582D01*
X267214Y210026D01*
X267520Y209471D01*
X267797Y208916D01*
X268019Y208416D01*
X268186Y207944D01*
X268297Y207556D01*
X268408Y207250D01*
X268436Y207139D01*
Y207056D01*
X268464Y207028D01*
Y207000D01*
Y205695D01*
X268436Y205168D01*
X268380Y204668D01*
X268297Y204196D01*
X268186Y203752D01*
X268047Y203336D01*
X267853Y202947D01*
X267436Y202225D01*
X266937Y201587D01*
X266381Y201031D01*
X265798Y200559D01*
X265188Y200143D01*
X264577Y199810D01*
X263994Y199532D01*
X263439Y199310D01*
X262939Y199144D01*
X262522Y199032D01*
X262356Y198977D01*
X262189Y198949D01*
X262078Y198922D01*
X261995D01*
X261939Y198894D01*
X261912D01*
X261356Y198922D01*
X260829Y198977D01*
X260329Y199060D01*
X259857Y199199D01*
X259441Y199366D01*
X259024Y199560D01*
X258247Y200004D01*
X257581Y200532D01*
X257026Y201142D01*
X256526Y201781D01*
X256109Y202447D01*
X255749Y203086D01*
X255471Y203724D01*
X255249Y204335D01*
X255082Y204863D01*
X254971Y205307D01*
X254916Y205501D01*
X254888Y205668D01*
X254860Y205807D01*
Y205890D01*
X254832Y205945D01*
Y205973D01*
X254943Y206612D01*
X255110Y207222D01*
X255277Y207778D01*
X255443Y208305D01*
X255637Y208805D01*
X255860Y209249D01*
X256082Y209665D01*
X256304Y210054D01*
X256554Y210415D01*
X256831Y210748D01*
X257081Y211054D01*
X257331Y211331D01*
X257886Y211803D01*
X258414Y212164D01*
X258941Y212469D01*
X259441Y212691D01*
X259885Y212830D01*
X260301Y212941D01*
X260635Y212997D01*
X260884Y213052D01*
X262411D01*
D02*
G37*
%LPC*%
G36*
X259024Y210693D02*
X258497Y210165D01*
Y202281D01*
X259024Y201781D01*
X259802D01*
X260329Y202281D01*
Y205168D01*
X262689D01*
X262939Y204918D01*
X262994Y204363D01*
X263050Y203891D01*
X263106Y203475D01*
X263189Y203114D01*
X263244Y202808D01*
X263328Y202558D01*
X263383Y202336D01*
X263439Y202170D01*
X263494Y202031D01*
X263550Y201948D01*
X263661Y201836D01*
X263716Y201781D01*
X265049D01*
X265299Y202031D01*
X265243Y202614D01*
X265160Y203141D01*
X265077Y203613D01*
X264993Y204030D01*
X264910Y204418D01*
X264827Y204724D01*
X264743Y205001D01*
X264660Y205251D01*
X264577Y205446D01*
X264521Y205584D01*
X264438Y205723D01*
X264382Y205834D01*
X264299Y205945D01*
X264272Y205973D01*
X265299Y207528D01*
X265243Y208083D01*
X265132Y208583D01*
X264910Y208999D01*
X264632Y209360D01*
X264327Y209665D01*
X263966Y209915D01*
X263605Y210137D01*
X263216Y210304D01*
X262800Y210415D01*
X262439Y210526D01*
X262078Y210609D01*
X261773Y210637D01*
X261495Y210665D01*
X261301Y210693D01*
X259024D01*
D02*
G37*
%LPD*%
G36*
X261912Y209110D02*
X262356Y209055D01*
X262717Y208944D01*
X262967Y208777D01*
X263189Y208583D01*
X263328Y208388D01*
X263411Y208222D01*
X263466Y208111D01*
Y208055D01*
X263439Y207833D01*
X263383Y207639D01*
X263272Y207306D01*
X263161Y207084D01*
X263022Y206917D01*
X262883Y206834D01*
X262800Y206778D01*
X262717Y206750D01*
X260329D01*
Y209110D01*
X261912D01*
D02*
G37*
G36*
X307497Y205695D02*
X308247Y205640D01*
X308941Y205612D01*
X309579Y205529D01*
X310190Y205446D01*
X310745Y205334D01*
X311245Y205224D01*
X311717Y205085D01*
X312161Y204946D01*
X312578Y204779D01*
X312939Y204641D01*
X313272Y204446D01*
X313577Y204280D01*
X313855Y204113D01*
X314077Y203919D01*
X314299Y203752D01*
X314660Y203363D01*
X314937Y203030D01*
X315132Y202697D01*
X315243Y202392D01*
X315326Y202142D01*
X315354Y201947D01*
X315382Y201836D01*
Y201781D01*
Y200726D01*
Y200282D01*
X315326Y199838D01*
X315187Y198949D01*
X314965Y198116D01*
X314743Y197367D01*
X314604Y197006D01*
X314493Y196700D01*
X314382Y196423D01*
X314271Y196173D01*
X314188Y195979D01*
X314132Y195840D01*
X314105Y195757D01*
X314077Y195729D01*
X313688Y194813D01*
X313272Y193924D01*
X312800Y193119D01*
X312300Y192370D01*
X311773Y191648D01*
X311217Y190982D01*
X310634Y190399D01*
X310024Y189815D01*
X309413Y189316D01*
X308774Y188844D01*
X308136Y188400D01*
X307497Y188011D01*
X306831Y187650D01*
X306192Y187345D01*
X305526Y187039D01*
X304888Y186789D01*
X304277Y186567D01*
X303666Y186373D01*
X302500Y186040D01*
X301945Y185929D01*
X301417Y185818D01*
X300945Y185734D01*
X300501Y185679D01*
X300085Y185623D01*
X299724Y185568D01*
X299391Y185540D01*
X299113D01*
X298891Y185512D01*
X287342Y185512D01*
X287259Y185485D01*
X287148Y185401D01*
X287064Y185290D01*
X286925Y185124D01*
X286814Y184929D01*
X286676Y184707D01*
X286537Y184457D01*
X286370Y184180D01*
X286065Y183569D01*
X285732Y182875D01*
X285399Y182153D01*
X285065Y181404D01*
X284732Y180654D01*
X284427Y179904D01*
X284149Y179238D01*
X283899Y178627D01*
X283788Y178350D01*
X283705Y178128D01*
X283594Y177906D01*
X283538Y177711D01*
X283483Y177572D01*
X283427Y177461D01*
X283400Y177406D01*
Y177378D01*
X269768D01*
X270268Y178544D01*
X270768Y179655D01*
X271240Y180737D01*
X271712Y181792D01*
X272156Y182819D01*
X272600Y183819D01*
X273016Y184790D01*
X273433Y185734D01*
X273822Y186651D01*
X274238Y187539D01*
X274988Y189233D01*
X275682Y190815D01*
X276348Y192314D01*
X276959Y193702D01*
X277542Y194979D01*
X278097Y196173D01*
X278597Y197283D01*
X279069Y198311D01*
X279485Y199227D01*
X279902Y200088D01*
X280263Y200865D01*
X280596Y201587D01*
X280901Y202225D01*
X281179Y202780D01*
X281401Y203308D01*
X281623Y203752D01*
X281817Y204141D01*
X281984Y204474D01*
X282150Y204779D01*
X282261Y205029D01*
X282372Y205224D01*
X282456Y205390D01*
X282511Y205501D01*
X282567Y205584D01*
X282595Y205640D01*
X282622Y205695D01*
X307497Y205695D01*
D02*
G37*
G36*
X300695Y181848D02*
X286814Y174491D01*
X286537D01*
X286814Y175157D01*
X287092Y175796D01*
X287370Y176379D01*
X287592Y176934D01*
X287842Y177433D01*
X288064Y177906D01*
X288258Y178350D01*
X288452Y178738D01*
X288619Y179127D01*
X288785Y179460D01*
X288952Y179766D01*
X289091Y180043D01*
X289341Y180543D01*
X289563Y180932D01*
X289729Y181237D01*
X289868Y181459D01*
X289979Y181626D01*
X290063Y181737D01*
X290146Y181792D01*
X290174Y181848D01*
X298086Y181848D01*
X300695Y182098D01*
Y181848D01*
D02*
G37*
%LPC*%
G36*
X292839Y199144D02*
X292756Y199116D01*
X292672Y199060D01*
X292589Y198977D01*
X292506Y198866D01*
X292395Y198727D01*
X292283Y198533D01*
X292061Y198116D01*
X291839Y197617D01*
X291590Y197061D01*
X291367Y196478D01*
X291117Y195868D01*
X290895Y195257D01*
X290673Y194674D01*
X290479Y194119D01*
X290285Y193619D01*
X290146Y193202D01*
X290090Y193036D01*
X290035Y192869D01*
X290007Y192758D01*
X289979Y192675D01*
X289951Y192619D01*
Y192592D01*
X290479Y192064D01*
X298086Y192064D01*
X298752Y192120D01*
X299335Y192258D01*
X299863Y192508D01*
X300335Y192814D01*
X300751Y193147D01*
X301112Y193563D01*
X301417Y193980D01*
X301695Y194424D01*
X301917Y194868D01*
X302084Y195285D01*
X302250Y195701D01*
X302361Y196034D01*
X302444Y196340D01*
X302500Y196589D01*
X302528Y196728D01*
Y196784D01*
Y198089D01*
X302333Y198449D01*
X302056Y198699D01*
X301778Y198894D01*
X301445Y199005D01*
X301167Y199088D01*
X300918Y199116D01*
X300751Y199144D01*
X292839Y199144D01*
D02*
G37*
%LPD*%
D10*
X252280Y84250D02*
D03*
D11*
X154743Y30555D02*
X248149D01*
Y189025D01*
X154743D02*
X248149D01*
X154743Y30555D02*
Y189025D01*
X308500Y6500D02*
Y13498D01*
X311999D01*
X313165Y12331D01*
Y9999D01*
X311999Y8832D01*
X308500D01*
X310833D02*
X313165Y6500D01*
X315498Y13498D02*
X320163Y6500D01*
Y13498D02*
X315498Y6500D01*
X329500Y13498D02*
X334165D01*
X331833D01*
Y6500D01*
X336498Y13498D02*
X341163Y6500D01*
Y13498D02*
X336498Y6500D01*
X164385Y193052D02*
X171383Y197717D01*
X164385D02*
X171383Y193052D01*
X165551Y204715D02*
X164385Y203549D01*
Y201216D01*
X165551Y200050D01*
X166718D01*
X167884Y201216D01*
Y203549D01*
X169050Y204715D01*
X170217D01*
X171383Y203549D01*
Y201216D01*
X170217Y200050D01*
X171383Y207047D02*
Y209380D01*
Y208214D01*
X164385D01*
X165551Y207047D01*
X427501Y193870D02*
X434499Y198535D01*
X427501D02*
X434499Y193870D01*
X428667Y205533D02*
X427501Y204366D01*
Y202034D01*
X428667Y200867D01*
X429834D01*
X431000Y202034D01*
Y204366D01*
X432166Y205533D01*
X433333D01*
X434499Y204366D01*
Y202034D01*
X433333Y200867D01*
X434499Y212530D02*
Y207865D01*
X429834Y212530D01*
X428667D01*
X427501Y211364D01*
Y209031D01*
X428667Y207865D01*
X331670Y60499D02*
Y55834D01*
X334002Y53501D01*
X336335Y55834D01*
Y60499D01*
X338667D02*
X343333D01*
X341000D01*
Y53501D01*
X350330D02*
X345665D01*
X350330Y58166D01*
Y59333D01*
X349164Y60499D01*
X346832D01*
X345665Y59333D01*
X282479Y16711D02*
X287144D01*
X289477Y19044D01*
X287144Y21376D01*
X282479D01*
Y23709D02*
Y28374D01*
Y26042D01*
X289477D01*
Y30707D02*
Y33039D01*
Y31873D01*
X282479D01*
X283645Y30707D01*
X355385Y125589D02*
X360050D01*
X362383Y127921D01*
X360050Y130254D01*
X355385D01*
Y132587D02*
X362383D01*
Y136086D01*
X361216Y137252D01*
X356551D01*
X355385Y136086D01*
Y132587D01*
Y144249D02*
Y139584D01*
X358884D01*
X357718Y141917D01*
Y143083D01*
X358884Y144249D01*
X361216D01*
X362383Y143083D01*
Y140751D01*
X361216Y139584D01*
X355501Y73670D02*
X360166D01*
X362499Y76002D01*
X360166Y78335D01*
X355501D01*
Y80667D02*
X362499D01*
Y84166D01*
X361333Y85333D01*
X356667D01*
X355501Y84166D01*
Y80667D01*
X362499Y91164D02*
X355501D01*
X359000Y87665D01*
Y92330D01*
X333168Y42501D02*
Y49499D01*
X336667D01*
X337834Y48333D01*
Y46000D01*
X336667Y44834D01*
X333168D01*
X335501D02*
X337834Y42501D01*
X343665D02*
Y49499D01*
X340166Y46000D01*
X344832D01*
X340168Y64501D02*
Y71499D01*
X343667D01*
X344834Y70333D01*
Y68000D01*
X343667Y66834D01*
X340168D01*
X342501D02*
X344834Y64501D01*
X347166Y70333D02*
X348333Y71499D01*
X350665D01*
X351832Y70333D01*
Y69166D01*
X350665Y68000D01*
X349499D01*
X350665D01*
X351832Y66834D01*
Y65667D01*
X350665Y64501D01*
X348333D01*
X347166Y65667D01*
X355168Y12501D02*
Y19499D01*
X358667D01*
X359834Y18333D01*
Y16000D01*
X358667Y14834D01*
X355168D01*
X357501D02*
X359834Y12501D01*
X366831D02*
X362166D01*
X366831Y17166D01*
Y18333D01*
X365665Y19499D01*
X363333D01*
X362166Y18333D01*
X258335Y43501D02*
Y50499D01*
X261834D01*
X263000Y49333D01*
Y47000D01*
X261834Y45834D01*
X258335D01*
X260667D02*
X263000Y43501D01*
X265333D02*
X267665D01*
X266499D01*
Y50499D01*
X265333Y49333D01*
X229104Y26395D02*
Y19397D01*
Y22896D01*
X233770D01*
Y26395D01*
Y19397D01*
X236102Y26395D02*
Y19397D01*
X240767D01*
X247765D02*
X243100D01*
X247765Y24063D01*
Y25229D01*
X246599Y26395D01*
X244266D01*
X243100Y25229D01*
X299581Y26070D02*
Y19073D01*
Y22571D01*
X304246D01*
Y26070D01*
Y19073D01*
X306578Y26070D02*
Y19073D01*
X311243D01*
X313576D02*
X315909D01*
X314742D01*
Y26070D01*
X313576Y24904D01*
X357501Y100670D02*
X364499D01*
Y104169D01*
X363332Y105335D01*
X358667D01*
X357501Y104169D01*
Y100670D01*
Y107667D02*
X364499D01*
Y111166D01*
X363332Y112333D01*
X358667D01*
X357501Y111166D01*
Y107667D01*
X364499Y119330D02*
Y114665D01*
X359834Y119330D01*
X358667D01*
X357501Y118164D01*
Y115831D01*
X358667Y114665D01*
X300834Y59333D02*
X299667Y60499D01*
X297335D01*
X296168Y59333D01*
Y54667D01*
X297335Y53501D01*
X299667D01*
X300834Y54667D01*
X303166Y59333D02*
X304333Y60499D01*
X306665D01*
X307831Y59333D01*
Y58166D01*
X306665Y57000D01*
X307831Y55834D01*
Y54667D01*
X306665Y53501D01*
X304333D01*
X303166Y54667D01*
Y55834D01*
X304333Y57000D01*
X303166Y58166D01*
Y59333D01*
X304333Y57000D02*
X306665D01*
X319834Y59333D02*
X318667Y60499D01*
X316335D01*
X315168Y59333D01*
Y54667D01*
X316335Y53501D01*
X318667D01*
X319834Y54667D01*
X322166Y60499D02*
X326832D01*
Y59333D01*
X322166Y54667D01*
Y53501D01*
X285834Y69333D02*
X284667Y70499D01*
X282335D01*
X281169Y69333D01*
Y64667D01*
X282335Y63501D01*
X284667D01*
X285834Y64667D01*
X292831Y70499D02*
X290499Y69333D01*
X288166Y67000D01*
Y64667D01*
X289333Y63501D01*
X291665D01*
X292831Y64667D01*
Y65834D01*
X291665Y67000D01*
X288166D01*
X264834Y60333D02*
X263667Y61499D01*
X261335D01*
X260169Y60333D01*
Y55667D01*
X261335Y54501D01*
X263667D01*
X264834Y55667D01*
X271831Y61499D02*
X267166D01*
Y58000D01*
X269499Y59166D01*
X270665D01*
X271831Y58000D01*
Y55667D01*
X270665Y54501D01*
X268333D01*
X267166Y55667D01*
X251834Y156333D02*
X250667Y157499D01*
X248335D01*
X247169Y156333D01*
Y151667D01*
X248335Y150501D01*
X250667D01*
X251834Y151667D01*
X257665Y150501D02*
Y157499D01*
X254166Y154000D01*
X258832D01*
D12*
X379585Y41244D02*
Y190244D01*
Y30244D02*
Y41244D01*
Y30244D02*
X439585D01*
X379585Y190244D02*
X439585D01*
X257280Y95750D02*
X355280D01*
X257280Y130250D02*
X355280D01*
X257280Y95750D02*
Y130250D01*
X355280Y95750D02*
Y130250D01*
X352000Y48750D02*
X372000D01*
Y42250D02*
Y48750D01*
X352000Y42250D02*
X372000D01*
X352000D02*
Y48750D01*
X299250Y29000D02*
Y49000D01*
X292750Y29000D02*
X299250D01*
X292750D02*
Y49000D01*
X299250D01*
X320149Y18425D02*
X346243D01*
X320149Y17000D02*
Y33000D01*
Y31802D02*
X345970D01*
X347250Y33082D01*
X346243Y18425D02*
X347250Y17418D01*
X252757Y31575D02*
X278851D01*
Y17000D02*
Y33000D01*
X253030Y18198D02*
X278851D01*
X251750Y16918D02*
X253030Y18198D01*
X251750Y32582D02*
X252757Y31575D01*
X365000Y84500D02*
X374000D01*
X365000Y71500D02*
X375000D01*
X365000D02*
Y94500D01*
X375000D01*
Y71500D02*
Y94500D01*
X366000Y133500D02*
X375000D01*
X365000Y146500D02*
X375000D01*
Y123500D02*
Y146500D01*
X365000Y123500D02*
X375000D01*
X365000D02*
Y146500D01*
M02*
