G04*
G04 #@! TF.GenerationSoftware,Altium Limited,Altium Designer,23.1.1 (15)*
G04*
G04 Layer_Color=8388736*
%FSLAX44Y44*%
%MOMM*%
G71*
G04*
G04 #@! TF.SameCoordinates,4691C8B8-A8D2-403F-8AEB-8B6B69F87735*
G04*
G04*
G04 #@! TF.FilePolarity,Negative*
G04*
G01*
G75*
%ADD19O,0.7300X1.9800*%
%ADD20R,0.7300X0.7300*%
%ADD21R,0.8300X1.0300*%
%ADD22R,1.0300X0.8300*%
%ADD23R,0.9860X0.9860*%
%ADD24R,0.7300X0.6300*%
%ADD25C,1.6000*%
%ADD26C,4.1000*%
G04:AMPARAMS|DCode=27|XSize=1.6mm|YSize=1.6mm|CornerRadius=0.425mm|HoleSize=0mm|Usage=FLASHONLY|Rotation=180.000|XOffset=0mm|YOffset=0mm|HoleType=Round|Shape=RoundedRectangle|*
%AMROUNDEDRECTD27*
21,1,1.6000,0.7500,0,0,180.0*
21,1,0.7500,1.6000,0,0,180.0*
1,1,0.8500,-0.3750,0.3750*
1,1,0.8500,0.3750,0.3750*
1,1,0.8500,0.3750,-0.3750*
1,1,0.8500,-0.3750,-0.3750*
%
%ADD27ROUNDEDRECTD27*%
%ADD28R,2.4000X2.4000*%
%ADD29C,2.4000*%
%ADD30C,0.8300*%
D19*
X261800Y84000D02*
D03*
X274500D02*
D03*
X287200D02*
D03*
X299900D02*
D03*
X312600D02*
D03*
X325300D02*
D03*
X338000D02*
D03*
X350700D02*
D03*
X261800Y142000D02*
D03*
X274500D02*
D03*
X287200D02*
D03*
X299900D02*
D03*
X312600D02*
D03*
X325300D02*
D03*
X338000D02*
D03*
X350700D02*
D03*
D20*
X367000Y66000D02*
D03*
X357000D02*
D03*
X365000Y25000D02*
D03*
X355000D02*
D03*
X328000Y46000D02*
D03*
X318000D02*
D03*
X268000Y39000D02*
D03*
X258000D02*
D03*
X264000Y158000D02*
D03*
X274000D02*
D03*
X330000Y67000D02*
D03*
X320000D02*
D03*
X308000D02*
D03*
X298000D02*
D03*
X287000Y58000D02*
D03*
X277000D02*
D03*
X266401Y66979D02*
D03*
X276401D02*
D03*
D21*
X368500Y55000D02*
D03*
X355500D02*
D03*
X362000Y36000D02*
D03*
D22*
X305500Y32500D02*
D03*
Y45500D02*
D03*
X286500Y39000D02*
D03*
D23*
X341000Y25000D02*
D03*
X327000D02*
D03*
X258000D02*
D03*
X272000D02*
D03*
D24*
X370000Y76000D02*
D03*
Y90000D02*
D03*
Y142000D02*
D03*
Y128000D02*
D03*
D25*
X211754Y122216D02*
D03*
Y97216D02*
D03*
X231884Y122216D02*
D03*
D26*
X185000Y50000D02*
D03*
Y170000D02*
D03*
D27*
X231884Y97216D02*
D03*
D28*
X423679Y53000D02*
D03*
X398000D02*
D03*
D29*
X423679Y91100D02*
D03*
Y129200D02*
D03*
Y167300D02*
D03*
X398000Y91100D02*
D03*
Y129200D02*
D03*
Y167300D02*
D03*
D30*
X324000Y167000D02*
D03*
X314000Y157000D02*
D03*
X334000D02*
D03*
Y177000D02*
D03*
X314000D02*
D03*
M02*
