G04*
G04 #@! TF.GenerationSoftware,Altium Limited,Altium Designer,23.1.1 (15)*
G04*
G04 Layer_Color=128*
%FSLAX44Y44*%
%MOMM*%
G71*
G04*
G04 #@! TF.SameCoordinates,4691C8B8-A8D2-403F-8AEB-8B6B69F87735*
G04*
G04*
G04 #@! TF.FilePolarity,Positive*
G04*
G01*
G75*
%ADD14R,0.6000X0.6000*%
%ADD38R,0.6000X1.1000*%
%ADD39R,2.0000X2.0000*%
%ADD40R,0.6000X0.6000*%
%ADD41R,3.1500X3.1500*%
%ADD42R,0.3000X0.8000*%
%ADD43R,0.8000X0.3000*%
D14*
X309000Y200000D02*
D03*
X299000D02*
D03*
D38*
X249000Y187000D02*
D03*
X239500D02*
D03*
X230000D02*
D03*
Y161000D02*
D03*
X239500D02*
D03*
X249000D02*
D03*
D39*
X307000Y122000D02*
D03*
Y82000D02*
D03*
X275000Y122000D02*
D03*
Y82000D02*
D03*
D40*
X217000Y170000D02*
D03*
Y180000D02*
D03*
X274000Y192000D02*
D03*
Y182000D02*
D03*
X288000Y188000D02*
D03*
Y198000D02*
D03*
D41*
X324000Y167000D02*
D03*
D42*
X309000Y144000D02*
D03*
X314000D02*
D03*
X319000D02*
D03*
X324000D02*
D03*
X329000D02*
D03*
X334000D02*
D03*
X339000D02*
D03*
Y190000D02*
D03*
X334000D02*
D03*
X329000D02*
D03*
X324000D02*
D03*
X319000D02*
D03*
X314000D02*
D03*
X309000D02*
D03*
D43*
X347000Y152000D02*
D03*
Y157000D02*
D03*
Y162000D02*
D03*
Y167000D02*
D03*
Y172000D02*
D03*
Y177000D02*
D03*
Y182000D02*
D03*
X301000D02*
D03*
Y177000D02*
D03*
Y172000D02*
D03*
Y167000D02*
D03*
Y162000D02*
D03*
Y157000D02*
D03*
Y152000D02*
D03*
M02*
