G04*
G04 #@! TF.GenerationSoftware,Altium Limited,Altium Designer,23.1.1 (15)*
G04*
G04 Layer_Color=16711935*
%FSLAX44Y44*%
%MOMM*%
G71*
G04*
G04 #@! TF.SameCoordinates,4691C8B8-A8D2-403F-8AEB-8B6B69F87735*
G04*
G04*
G04 #@! TF.FilePolarity,Negative*
G04*
G01*
G75*
%ADD20R,0.7300X0.7300*%
%ADD25C,1.6000*%
%ADD26C,4.1000*%
G04:AMPARAMS|DCode=27|XSize=1.6mm|YSize=1.6mm|CornerRadius=0.425mm|HoleSize=0mm|Usage=FLASHONLY|Rotation=180.000|XOffset=0mm|YOffset=0mm|HoleType=Round|Shape=RoundedRectangle|*
%AMROUNDEDRECTD27*
21,1,1.6000,0.7500,0,0,180.0*
21,1,0.7500,1.6000,0,0,180.0*
1,1,0.8500,-0.3750,0.3750*
1,1,0.8500,0.3750,0.3750*
1,1,0.8500,0.3750,-0.3750*
1,1,0.8500,-0.3750,-0.3750*
%
%ADD27ROUNDEDRECTD27*%
%ADD28R,2.4000X2.4000*%
%ADD29C,2.4000*%
%ADD30C,0.8300*%
%ADD44R,0.8032X1.3032*%
%ADD45R,2.1300X2.1300*%
%ADD46R,0.7300X0.7300*%
%ADD47R,3.2800X3.2800*%
%ADD48R,0.4300X0.9300*%
%ADD49R,0.9300X0.4300*%
D20*
X309000Y200000D02*
D03*
X299000D02*
D03*
D25*
X211754Y122216D02*
D03*
Y97216D02*
D03*
X231884Y122216D02*
D03*
D26*
X185000Y50000D02*
D03*
Y170000D02*
D03*
D27*
X231884Y97216D02*
D03*
D28*
X423679Y53000D02*
D03*
X398000D02*
D03*
D29*
X423679Y91100D02*
D03*
Y129200D02*
D03*
Y167300D02*
D03*
X398000Y91100D02*
D03*
Y129200D02*
D03*
Y167300D02*
D03*
D30*
X324000Y167000D02*
D03*
X314000Y157000D02*
D03*
X334000D02*
D03*
Y177000D02*
D03*
X314000D02*
D03*
D44*
X249000Y187000D02*
D03*
X239500D02*
D03*
X230000D02*
D03*
Y161000D02*
D03*
X239500D02*
D03*
X249000D02*
D03*
D45*
X307000Y122000D02*
D03*
Y82000D02*
D03*
X275000Y122000D02*
D03*
Y82000D02*
D03*
D46*
X217000Y170000D02*
D03*
Y180000D02*
D03*
X274000Y192000D02*
D03*
Y182000D02*
D03*
X288000Y188000D02*
D03*
Y198000D02*
D03*
D47*
X324000Y167000D02*
D03*
D48*
X309000Y144000D02*
D03*
X314000D02*
D03*
X319000D02*
D03*
X324000D02*
D03*
X329000D02*
D03*
X334000D02*
D03*
X339000D02*
D03*
Y190000D02*
D03*
X334000D02*
D03*
X329000D02*
D03*
X324000D02*
D03*
X319000D02*
D03*
X314000D02*
D03*
X309000D02*
D03*
D49*
X347000Y152000D02*
D03*
Y157000D02*
D03*
Y162000D02*
D03*
Y167000D02*
D03*
Y172000D02*
D03*
Y177000D02*
D03*
Y182000D02*
D03*
X301000D02*
D03*
Y177000D02*
D03*
Y172000D02*
D03*
Y167000D02*
D03*
Y162000D02*
D03*
Y157000D02*
D03*
Y152000D02*
D03*
M02*
