G04*
G04 #@! TF.GenerationSoftware,Altium Limited,Altium Designer,23.1.1 (15)*
G04*
G04 Layer_Physical_Order=1*
G04 Layer_Color=255*
%FSLAX44Y44*%
%MOMM*%
G71*
G04*
G04 #@! TF.SameCoordinates,4691C8B8-A8D2-403F-8AEB-8B6B69F87735*
G04*
G04*
G04 #@! TF.FilePolarity,Positive*
G04*
G01*
G75*
%ADD10C,0.7000*%
%ADD12C,0.2000*%
%ADD13O,0.6000X1.8500*%
%ADD14R,0.6000X0.6000*%
%ADD15R,0.7000X0.9000*%
%ADD16R,0.9000X0.7000*%
%ADD17R,0.8500X0.8500*%
%ADD18R,0.6000X0.5000*%
%ADD31C,0.2540*%
%ADD32C,1.5000*%
%ADD33C,4.0000*%
G04:AMPARAMS|DCode=34|XSize=1.5mm|YSize=1.5mm|CornerRadius=0.375mm|HoleSize=0mm|Usage=FLASHONLY|Rotation=180.000|XOffset=0mm|YOffset=0mm|HoleType=Round|Shape=RoundedRectangle|*
%AMROUNDEDRECTD34*
21,1,1.5000,0.7500,0,0,180.0*
21,1,0.7500,1.5000,0,0,180.0*
1,1,0.7500,-0.3750,0.3750*
1,1,0.7500,0.3750,0.3750*
1,1,0.7500,0.3750,-0.3750*
1,1,0.7500,-0.3750,-0.3750*
%
%ADD34ROUNDEDRECTD34*%
%ADD35R,2.2000X2.2000*%
%ADD36C,2.2000*%
%ADD37C,0.6000*%
G36*
X436115Y175293D02*
X434889Y174964D01*
X434514Y175614D01*
X431992Y178135D01*
X428905Y179917D01*
X425461Y180840D01*
X421896D01*
X418452Y179917D01*
X415365Y178135D01*
X412844Y175614D01*
X411573Y173412D01*
X410106D01*
X408835Y175614D01*
X406314Y178135D01*
X403226Y179917D01*
X399783Y180840D01*
X396217D01*
X392774Y179917D01*
X389686Y178135D01*
X387165Y175614D01*
X385383Y172526D01*
X384460Y169083D01*
Y165517D01*
X385383Y162074D01*
X387165Y158986D01*
X389686Y156465D01*
X392774Y154683D01*
X396217Y153760D01*
X399783D01*
X403226Y154683D01*
X406314Y156465D01*
X408835Y158986D01*
X410106Y161189D01*
X411573D01*
X412844Y158986D01*
X415365Y156465D01*
X418452Y154683D01*
X421896Y153760D01*
X425461D01*
X428905Y154683D01*
X431992Y156465D01*
X434514Y158986D01*
X434889Y159636D01*
X436115Y159307D01*
Y137193D01*
X434889Y136864D01*
X434514Y137514D01*
X431992Y140035D01*
X428905Y141817D01*
X425461Y142740D01*
X421896D01*
X418452Y141817D01*
X415365Y140035D01*
X412844Y137514D01*
X411573Y135311D01*
X410106D01*
X408835Y137514D01*
X406314Y140035D01*
X403226Y141817D01*
X399783Y142740D01*
X396217D01*
X392774Y141817D01*
X389686Y140035D01*
X387165Y137514D01*
X385383Y134426D01*
X384863Y132485D01*
X375540D01*
Y133040D01*
X364460D01*
Y131885D01*
X363000D01*
X361513Y131589D01*
X360253Y130747D01*
X357473Y127967D01*
X356203Y128493D01*
Y129260D01*
X355359Y131296D01*
X354776Y131879D01*
X355919Y133588D01*
X356348Y135750D01*
Y148250D01*
X355919Y150412D01*
X354694Y152244D01*
X352862Y153469D01*
X350700Y153898D01*
X348538Y153469D01*
X346706Y152244D01*
X345481Y150412D01*
X345051Y148250D01*
Y135750D01*
X345481Y133588D01*
X346594Y131923D01*
X345966Y131296D01*
X345123Y129260D01*
Y127056D01*
X345966Y125019D01*
X347525Y123461D01*
X349561Y122618D01*
X350328D01*
X350854Y121348D01*
X335253Y105747D01*
X334411Y104487D01*
X334115Y103000D01*
Y94317D01*
X334006Y94244D01*
X332781Y92412D01*
X332351Y90250D01*
Y77750D01*
X332781Y75588D01*
X333970Y73810D01*
X333714Y72540D01*
X329760D01*
X329393Y73497D01*
X329330Y73810D01*
X330519Y75588D01*
X330948Y77750D01*
Y90250D01*
X330519Y92412D01*
X329294Y94244D01*
X327462Y95469D01*
X325300Y95899D01*
X323138Y95469D01*
X321306Y94244D01*
X320081Y92412D01*
X319652Y90250D01*
Y77750D01*
X320081Y75588D01*
X320372Y75153D01*
X318983Y73764D01*
X318237Y72648D01*
X317073Y72695D01*
X316632Y73812D01*
X317819Y75588D01*
X318249Y77750D01*
Y90250D01*
X317819Y92412D01*
X316594Y94244D01*
X314762Y95469D01*
X312600Y95899D01*
X310438Y95469D01*
X308606Y94244D01*
X307381Y92412D01*
X306952Y90250D01*
Y77750D01*
X307381Y75588D01*
X308053Y74583D01*
Y74533D01*
X306983Y73462D01*
X306367Y72540D01*
X304360D01*
X303993Y73497D01*
X303930Y73810D01*
X305119Y75588D01*
X305548Y77750D01*
Y90250D01*
X305119Y92412D01*
X303894Y94244D01*
X302062Y95469D01*
X299900Y95899D01*
X297738Y95469D01*
X295906Y94244D01*
X294681Y92412D01*
X294251Y90250D01*
Y77750D01*
X294681Y75588D01*
X295437Y74458D01*
Y72540D01*
X292460D01*
Y63540D01*
X290985D01*
Y73616D01*
X291194Y73756D01*
X292419Y75588D01*
X292848Y77750D01*
Y90250D01*
X292419Y92412D01*
X291194Y94244D01*
X289362Y95469D01*
X287200Y95899D01*
X285038Y95469D01*
X283206Y94244D01*
X281982Y92412D01*
X281551Y90250D01*
Y77750D01*
X281982Y75588D01*
X283206Y73756D01*
X283215Y73749D01*
Y63540D01*
X281941D01*
Y72519D01*
X278696D01*
Y74058D01*
X279719Y75588D01*
X280149Y77750D01*
Y90250D01*
X279719Y92412D01*
X278494Y94244D01*
X276662Y95469D01*
X274500Y95899D01*
X272338Y95469D01*
X270506Y94244D01*
X269282Y92412D01*
X268852Y90250D01*
Y77750D01*
X269282Y75588D01*
X270484Y73789D01*
X270445Y73583D01*
X270071Y72519D01*
X266229D01*
X265855Y73583D01*
X265816Y73789D01*
X267019Y75588D01*
X267449Y77750D01*
Y90250D01*
X267019Y92412D01*
X265794Y94244D01*
X263962Y95469D01*
X261800Y95899D01*
X259638Y95469D01*
X257806Y94244D01*
X256581Y92412D01*
X256152Y90250D01*
Y77750D01*
X256332Y76840D01*
X254770Y75278D01*
X253928Y74018D01*
X253633Y72531D01*
Y58483D01*
X253928Y56996D01*
X254770Y55736D01*
X260253Y50253D01*
X261513Y49411D01*
X263000Y49115D01*
X272000D01*
X273487Y49411D01*
X274747Y50253D01*
X276954Y52460D01*
X292540D01*
Y61460D01*
X312295D01*
X313144Y60190D01*
X312629Y58948D01*
Y56744D01*
X313473Y54707D01*
X314200Y53980D01*
Y51540D01*
X298460D01*
Y39460D01*
X298460D01*
Y38540D01*
X298460D01*
Y26460D01*
X312540D01*
Y28615D01*
X316847D01*
X318334Y28911D01*
X318940Y29316D01*
X320210Y28637D01*
Y26270D01*
X325730D01*
Y31790D01*
X323290D01*
X322804Y32963D01*
X327017Y37176D01*
X327859Y38436D01*
X328155Y39923D01*
Y40460D01*
X333540D01*
Y46046D01*
X340747Y53253D01*
X341589Y54514D01*
X341885Y56000D01*
Y60621D01*
X343155Y61182D01*
X344898Y60460D01*
X347102D01*
X348190Y60911D01*
X349460Y60062D01*
Y47960D01*
X361540D01*
Y47960D01*
X362460D01*
Y47960D01*
X374540D01*
Y62040D01*
X372540D01*
Y70960D01*
X375540D01*
Y74730D01*
X370000D01*
Y76000D01*
X368730D01*
Y81040D01*
X364460D01*
Y76368D01*
X363190Y75775D01*
X362390Y76310D01*
X360903Y76606D01*
X357122D01*
X356316Y77588D01*
X356348Y77750D01*
Y90250D01*
X356096Y91517D01*
X357079Y92788D01*
X361156D01*
X364460Y89484D01*
Y84960D01*
X375540D01*
Y86327D01*
X385261D01*
X385383Y85874D01*
X387165Y82786D01*
X389686Y80265D01*
X392774Y78483D01*
X396217Y77560D01*
X399783D01*
X403226Y78483D01*
X406314Y80265D01*
X408835Y82786D01*
X410106Y84988D01*
X411573D01*
X412844Y82786D01*
X415365Y80265D01*
X418452Y78483D01*
X421896Y77560D01*
X425461D01*
X428905Y78483D01*
X431992Y80265D01*
X434514Y82786D01*
X434889Y83436D01*
X436115Y83107D01*
Y66540D01*
X424949D01*
Y53000D01*
Y39460D01*
X436115D01*
Y3885D01*
X128885D01*
Y216115D01*
X436115D01*
Y175293D01*
D02*
G37*
G36*
X385383Y123974D02*
X387165Y120886D01*
X389686Y118365D01*
X392774Y116583D01*
X396217Y115660D01*
X399783D01*
X403226Y116583D01*
X406314Y118365D01*
X408835Y120886D01*
X410106Y123089D01*
X411573D01*
X412844Y120886D01*
X415365Y118365D01*
X418452Y116583D01*
X421896Y115660D01*
X425461D01*
X428905Y116583D01*
X431992Y118365D01*
X434514Y120886D01*
X434889Y121536D01*
X436115Y121207D01*
Y99093D01*
X434889Y98764D01*
X434514Y99414D01*
X431992Y101935D01*
X428905Y103717D01*
X425461Y104640D01*
X421896D01*
X418452Y103717D01*
X415365Y101935D01*
X412844Y99414D01*
X411573Y97212D01*
X410106D01*
X408835Y99414D01*
X406314Y101935D01*
X403226Y103717D01*
X399783Y104640D01*
X396217D01*
X392774Y103717D01*
X389686Y101935D01*
X387165Y99414D01*
X385383Y96326D01*
X384785Y94097D01*
X375540D01*
Y95040D01*
X369891D01*
X365512Y99419D01*
X364252Y100261D01*
X362765Y100557D01*
X352300D01*
X350814Y100261D01*
X349553Y99419D01*
X348065Y97931D01*
X347223Y96671D01*
X346928Y95184D01*
Y94392D01*
X346706Y94244D01*
X345481Y92412D01*
X345051Y90250D01*
Y77750D01*
X345481Y75588D01*
X346706Y73756D01*
X347321Y73345D01*
X347467Y72713D01*
X347432Y72600D01*
X346447Y71540D01*
X344898D01*
X343155Y70818D01*
X341885Y71379D01*
Y73683D01*
X341994Y73756D01*
X343219Y75588D01*
X343648Y77750D01*
Y90250D01*
X343219Y92412D01*
X341994Y94244D01*
X341885Y94317D01*
Y101391D01*
X363748Y123255D01*
X364460Y122960D01*
Y122960D01*
X375540D01*
Y124715D01*
X385184D01*
X385383Y123974D01*
D02*
G37*
%LPC*%
G36*
X335270Y183012D02*
Y178270D01*
X340012D01*
X339120Y180421D01*
X337421Y182120D01*
X335270Y183012D01*
D02*
G37*
G36*
X332730D02*
X330579Y182120D01*
X328880Y180421D01*
X327988Y178270D01*
X332730D01*
Y183012D01*
D02*
G37*
G36*
X315270D02*
Y178270D01*
X320012D01*
X319120Y180421D01*
X317421Y182120D01*
X315270Y183012D01*
D02*
G37*
G36*
X312730D02*
X310579Y182120D01*
X308880Y180421D01*
X307988Y178270D01*
X312730D01*
Y183012D01*
D02*
G37*
G36*
X187220Y192540D02*
X186270D01*
Y171270D01*
X207540D01*
Y172220D01*
X206674Y176575D01*
X204975Y180677D01*
X202508Y184368D01*
X199368Y187508D01*
X195677Y189975D01*
X191575Y191674D01*
X187220Y192540D01*
D02*
G37*
G36*
X183730D02*
X182780D01*
X178425Y191674D01*
X174323Y189975D01*
X170632Y187508D01*
X167492Y184368D01*
X165025Y180677D01*
X163326Y176575D01*
X162460Y172220D01*
Y171270D01*
X183730D01*
Y192540D01*
D02*
G37*
G36*
X340012Y175730D02*
X335270D01*
Y170988D01*
X337421Y171880D01*
X339120Y173579D01*
X340012Y175730D01*
D02*
G37*
G36*
X332730D02*
X327988D01*
X328880Y173579D01*
X330579Y171880D01*
X332730Y170988D01*
Y175730D01*
D02*
G37*
G36*
X320012D02*
X315270D01*
Y170988D01*
X317421Y171880D01*
X319120Y173579D01*
X320012Y175730D01*
D02*
G37*
G36*
X312730D02*
X307988D01*
X308880Y173579D01*
X310579Y171880D01*
X312730Y170988D01*
Y175730D01*
D02*
G37*
G36*
X325270Y173012D02*
Y168270D01*
X330012D01*
X329120Y170421D01*
X327421Y172120D01*
X325270Y173012D01*
D02*
G37*
G36*
X322730D02*
X320579Y172120D01*
X318880Y170421D01*
X317988Y168270D01*
X322730D01*
Y173012D01*
D02*
G37*
G36*
X330012Y165730D02*
X325270D01*
Y160988D01*
X327421Y161880D01*
X329120Y163579D01*
X330012Y165730D01*
D02*
G37*
G36*
X322730D02*
X317988D01*
X318880Y163579D01*
X320579Y161880D01*
X322730Y160988D01*
Y165730D01*
D02*
G37*
G36*
X279540Y163540D02*
X275270D01*
Y159270D01*
X279540D01*
Y163540D01*
D02*
G37*
G36*
X335270Y163012D02*
Y158270D01*
X340012D01*
X339120Y160421D01*
X337421Y162120D01*
X335270Y163012D01*
D02*
G37*
G36*
X332730D02*
X330579Y162120D01*
X328880Y160421D01*
X327988Y158270D01*
X332730D01*
Y163012D01*
D02*
G37*
G36*
X315270D02*
Y158270D01*
X320012D01*
X319120Y160421D01*
X317421Y162120D01*
X315270Y163012D01*
D02*
G37*
G36*
X312730D02*
X310579Y162120D01*
X308880Y160421D01*
X307988Y158270D01*
X312730D01*
Y163012D01*
D02*
G37*
G36*
X207540Y168730D02*
X186270D01*
Y147460D01*
X187220D01*
X191575Y148326D01*
X195677Y150025D01*
X199368Y152492D01*
X202508Y155632D01*
X204975Y159323D01*
X206674Y163425D01*
X207540Y167780D01*
Y168730D01*
D02*
G37*
G36*
X183730D02*
X162460D01*
Y167780D01*
X163326Y163425D01*
X165025Y159323D01*
X167492Y155632D01*
X170632Y152492D01*
X174323Y150025D01*
X178425Y148326D01*
X182780Y147460D01*
X183730D01*
Y168730D01*
D02*
G37*
G36*
X375540Y147040D02*
X371270D01*
Y143270D01*
X375540D01*
Y147040D01*
D02*
G37*
G36*
X368730D02*
X364460D01*
Y143270D01*
X368730D01*
Y147040D01*
D02*
G37*
G36*
X375540Y140730D02*
X371270D01*
Y136960D01*
X375540D01*
Y140730D01*
D02*
G37*
G36*
X368730D02*
X364460D01*
Y136960D01*
X368730D01*
Y140730D01*
D02*
G37*
G36*
X280149Y140730D02*
X275770D01*
Y130354D01*
X276662Y130531D01*
X278494Y131756D01*
X279719Y133588D01*
X280149Y135750D01*
Y140730D01*
D02*
G37*
G36*
X273230D02*
X268852D01*
Y135750D01*
X269282Y133588D01*
X270506Y131756D01*
X272338Y130531D01*
X273230Y130354D01*
Y140730D01*
D02*
G37*
G36*
X235102Y204540D02*
X232898D01*
X230862Y203697D01*
X229303Y202138D01*
X228460Y200102D01*
Y197898D01*
X229303Y195862D01*
X230862Y194303D01*
X232898Y193460D01*
X235102D01*
X237138Y194303D01*
X237950Y195115D01*
X240391D01*
X260115Y175391D01*
Y163540D01*
X258460D01*
Y152681D01*
X257806Y152244D01*
X256581Y150412D01*
X256152Y148250D01*
Y135750D01*
X256581Y133588D01*
X257806Y131756D01*
X257915Y131683D01*
Y129200D01*
X258211Y127713D01*
X259053Y126453D01*
X268830Y116677D01*
X270090Y115835D01*
X271576Y115539D01*
X322544D01*
X323291Y114792D01*
X325327Y113948D01*
X327531D01*
X329567Y114792D01*
X331126Y116350D01*
X331969Y118386D01*
Y120590D01*
X331126Y122626D01*
X330254Y123498D01*
X329846Y124794D01*
X330689Y126830D01*
Y129034D01*
X329846Y131070D01*
X329282Y131634D01*
X329294Y131756D01*
X330519Y133588D01*
X330948Y135750D01*
Y148250D01*
X330651Y149747D01*
X331535Y150923D01*
X331606Y150959D01*
X331671Y150956D01*
X332659Y149824D01*
X332650Y149752D01*
X332351Y148250D01*
Y135750D01*
X332781Y133588D01*
X334006Y131756D01*
X335838Y130531D01*
X338000Y130101D01*
X340162Y130531D01*
X341994Y131756D01*
X343219Y133588D01*
X343648Y135750D01*
Y148250D01*
X343219Y150412D01*
X341994Y152244D01*
X340162Y153469D01*
X340139Y153473D01*
X339541Y154593D01*
X340012Y155730D01*
X327988D01*
X328610Y154228D01*
X327584Y153386D01*
X327462Y153469D01*
X325300Y153898D01*
X323138Y153469D01*
X321306Y152244D01*
X320081Y150412D01*
X319652Y148250D01*
Y135750D01*
X320081Y133588D01*
X321239Y131856D01*
X320452Y131070D01*
X319609Y129034D01*
Y126830D01*
X320452Y124794D01*
X320765Y124481D01*
X320279Y123308D01*
X273186D01*
X265954Y130540D01*
X265794Y131756D01*
X267019Y133588D01*
X267449Y135750D01*
Y148250D01*
X267019Y150412D01*
X266499Y151190D01*
X266924Y152460D01*
X269123D01*
X269802Y151190D01*
X269282Y150412D01*
X268852Y148250D01*
Y143270D01*
X274500D01*
X280149D01*
Y148250D01*
X279719Y150412D01*
X279198Y151190D01*
X279540Y152460D01*
X279540D01*
X279540Y152460D01*
Y156730D01*
X274000D01*
Y158000D01*
X272730D01*
Y163540D01*
X267885D01*
Y177000D01*
X267589Y178487D01*
X266747Y179747D01*
X244747Y201747D01*
X243487Y202589D01*
X242000Y202885D01*
X237950D01*
X237138Y203697D01*
X235102Y204540D01*
D02*
G37*
G36*
X320012Y155730D02*
X307988D01*
X308880Y153579D01*
X308758Y152346D01*
X308606Y152244D01*
X307381Y150412D01*
X306952Y148250D01*
Y135750D01*
X307381Y133588D01*
X308606Y131756D01*
X310438Y130531D01*
X312600Y130101D01*
X314762Y130531D01*
X316594Y131756D01*
X317819Y133588D01*
X318249Y135750D01*
Y148250D01*
X317819Y150412D01*
X317239Y151279D01*
X317421Y151880D01*
X319120Y153579D01*
X320012Y155730D01*
D02*
G37*
G36*
X299900Y153898D02*
X297738Y153469D01*
X295906Y152244D01*
X294681Y150412D01*
X294251Y148250D01*
Y135750D01*
X294681Y133588D01*
X295906Y131756D01*
X297738Y130531D01*
X299900Y130101D01*
X302062Y130531D01*
X303894Y131756D01*
X305119Y133588D01*
X305548Y135750D01*
Y148250D01*
X305119Y150412D01*
X303894Y152244D01*
X302062Y153469D01*
X299900Y153898D01*
D02*
G37*
G36*
X287200D02*
X285038Y153469D01*
X283206Y152244D01*
X281982Y150412D01*
X281551Y148250D01*
Y135750D01*
X281982Y133588D01*
X283206Y131756D01*
X285038Y130531D01*
X287200Y130101D01*
X289362Y130531D01*
X291194Y131756D01*
X292419Y133588D01*
X292848Y135750D01*
Y148250D01*
X292419Y150412D01*
X291194Y152244D01*
X289362Y153469D01*
X287200Y153898D01*
D02*
G37*
G36*
X233206Y132256D02*
X230562D01*
X228009Y131572D01*
X225719Y130250D01*
X223850Y128381D01*
X222528Y126091D01*
X222476Y125897D01*
X221161D01*
X221109Y126091D01*
X219788Y128381D01*
X217918Y130250D01*
X215629Y131572D01*
X213075Y132256D01*
X210432D01*
X207878Y131572D01*
X205589Y130250D01*
X203720Y128381D01*
X202398Y126091D01*
X201714Y123538D01*
Y120894D01*
X202398Y118341D01*
X203720Y116051D01*
X205589Y114182D01*
X207878Y112860D01*
X210432Y112176D01*
X213075D01*
X215629Y112860D01*
X217918Y114182D01*
X219788Y116051D01*
X221109Y118341D01*
X221161Y118535D01*
X222476D01*
X222528Y118341D01*
X223850Y116051D01*
X225719Y114182D01*
X228009Y112860D01*
X230562Y112176D01*
X233206D01*
X235759Y112860D01*
X238049Y114182D01*
X239918Y116051D01*
X241240Y118341D01*
X241924Y120894D01*
Y123538D01*
X241240Y126091D01*
X239918Y128381D01*
X238049Y130250D01*
X235759Y131572D01*
X233206Y132256D01*
D02*
G37*
G36*
X235634Y107379D02*
X228134D01*
X225680Y106891D01*
X223599Y105501D01*
X222209Y103420D01*
X221958Y102161D01*
X220620Y101939D01*
X219788Y103381D01*
X217918Y105250D01*
X215629Y106572D01*
X213075Y107256D01*
X213023D01*
Y97216D01*
Y87176D01*
X213075D01*
X215629Y87860D01*
X217918Y89182D01*
X219788Y91051D01*
X220620Y92492D01*
X221958Y92271D01*
X222209Y91012D01*
X223599Y88931D01*
X225680Y87541D01*
X228134Y87053D01*
X235634D01*
X238088Y87541D01*
X240169Y88931D01*
X241559Y91012D01*
X242047Y93466D01*
Y100966D01*
X241559Y103420D01*
X240169Y105501D01*
X238088Y106891D01*
X235634Y107379D01*
D02*
G37*
G36*
X210483Y107256D02*
X210432D01*
X207878Y106572D01*
X205589Y105250D01*
X203720Y103381D01*
X202398Y101091D01*
X201714Y98538D01*
Y98486D01*
X210483D01*
Y107256D01*
D02*
G37*
G36*
Y95946D02*
X201714D01*
Y95894D01*
X202398Y93341D01*
X203720Y91051D01*
X205589Y89182D01*
X207878Y87860D01*
X210432Y87176D01*
X210483D01*
Y95946D01*
D02*
G37*
G36*
X375540Y81040D02*
X371270D01*
Y77270D01*
X375540D01*
Y81040D01*
D02*
G37*
G36*
X396730Y66540D02*
X384460D01*
Y54270D01*
X396730D01*
Y66540D01*
D02*
G37*
G36*
X187220Y72540D02*
X186270D01*
Y51270D01*
X207540D01*
Y52220D01*
X206674Y56575D01*
X204975Y60677D01*
X202508Y64368D01*
X199368Y67508D01*
X195677Y69975D01*
X191575Y71674D01*
X187220Y72540D01*
D02*
G37*
G36*
X183730D02*
X182780D01*
X178425Y71674D01*
X174323Y69975D01*
X170632Y67508D01*
X167492Y64368D01*
X165025Y60677D01*
X163326Y56575D01*
X162460Y52220D01*
Y51270D01*
X183730D01*
Y72540D01*
D02*
G37*
G36*
X293540Y45040D02*
X279460D01*
Y42609D01*
X273540D01*
Y44540D01*
X252460D01*
Y33460D01*
X254391D01*
Y31790D01*
X251210D01*
Y18210D01*
X263940D01*
X264790Y18210D01*
X266060Y18210D01*
X270730D01*
Y25000D01*
Y31790D01*
X266060D01*
X265210Y31790D01*
X263940Y31790D01*
X261609D01*
Y33460D01*
X273540D01*
Y35391D01*
X279460D01*
Y32960D01*
X293540D01*
Y45040D01*
D02*
G37*
G36*
X422409Y66540D02*
X399270D01*
Y53000D01*
Y39460D01*
X422409D01*
Y53000D01*
Y66540D01*
D02*
G37*
G36*
X396730Y51730D02*
X384460D01*
Y39460D01*
X396730D01*
Y51730D01*
D02*
G37*
G36*
X368040Y43040D02*
X355960D01*
Y30540D01*
X349460D01*
Y28609D01*
X347790D01*
Y31790D01*
X335060D01*
X334210Y31790D01*
X332940Y31790D01*
X328270D01*
Y25000D01*
Y18210D01*
X332940D01*
X333790Y18210D01*
X335060Y18210D01*
X347790D01*
Y21391D01*
X349460D01*
Y19460D01*
X370540D01*
Y30540D01*
X368040D01*
Y43040D01*
D02*
G37*
G36*
X207540Y48730D02*
X186270D01*
Y27460D01*
X187220D01*
X191575Y28326D01*
X195677Y30025D01*
X199368Y32492D01*
X202508Y35632D01*
X204975Y39323D01*
X206674Y43425D01*
X207540Y47780D01*
Y48730D01*
D02*
G37*
G36*
X183730D02*
X162460D01*
Y47780D01*
X163326Y43425D01*
X165025Y39323D01*
X167492Y35632D01*
X170632Y32492D01*
X174323Y30025D01*
X178425Y28326D01*
X182780Y27460D01*
X183730D01*
Y48730D01*
D02*
G37*
G36*
X273270Y31790D02*
Y26270D01*
X278790D01*
Y31790D01*
X273270D01*
D02*
G37*
G36*
X278790Y23730D02*
X273270D01*
Y18210D01*
X278790D01*
Y23730D01*
D02*
G37*
G36*
X325730D02*
X320210D01*
Y18210D01*
X325730D01*
Y23730D01*
D02*
G37*
%LPD*%
D10*
X324000Y167000D02*
D03*
X314000Y157000D02*
D03*
X334000D02*
D03*
Y177000D02*
D03*
X314000D02*
D03*
D12*
X330000Y59000D02*
Y67000D01*
X266401Y66979D02*
X266403Y66977D01*
Y59810D02*
Y66977D01*
X363635Y26365D02*
X365000Y25000D01*
X362000Y36000D02*
X363635Y34365D01*
Y26365D02*
Y34365D01*
X341000Y25000D02*
X355000D01*
X268000Y39000D02*
X286500D01*
X258000Y39000D02*
X258000Y39000D01*
X258000Y25000D02*
Y39000D01*
D13*
X261800Y84000D02*
D03*
X274500D02*
D03*
X287200D02*
D03*
X299900D02*
D03*
X312600D02*
D03*
X325300D02*
D03*
X338000D02*
D03*
X350700D02*
D03*
X261800Y142000D02*
D03*
X274500D02*
D03*
X287200D02*
D03*
X299900D02*
D03*
X312600D02*
D03*
X325300D02*
D03*
X338000D02*
D03*
X350700D02*
D03*
D14*
X367000Y66000D02*
D03*
X357000D02*
D03*
X365000Y25000D02*
D03*
X355000D02*
D03*
X328000Y46000D02*
D03*
X318000D02*
D03*
X268000Y39000D02*
D03*
X258000D02*
D03*
X264000Y158000D02*
D03*
X274000D02*
D03*
X330000Y67000D02*
D03*
X320000D02*
D03*
X308000D02*
D03*
X298000D02*
D03*
X287000Y58000D02*
D03*
X277000D02*
D03*
X266401Y66979D02*
D03*
X276401D02*
D03*
D15*
X368500Y55000D02*
D03*
X355500D02*
D03*
X362000Y36000D02*
D03*
D16*
X305500Y32500D02*
D03*
Y45500D02*
D03*
X286500Y39000D02*
D03*
D17*
X341000Y25000D02*
D03*
X327000D02*
D03*
X258000D02*
D03*
X272000D02*
D03*
D18*
X370000Y76000D02*
D03*
Y90000D02*
D03*
Y142000D02*
D03*
Y128000D02*
D03*
D31*
X263000Y53000D02*
X272000D01*
X257517Y58483D02*
X263000Y53000D01*
X272000D02*
X277000Y58000D01*
X257517Y58483D02*
Y72531D01*
X261800Y76814D01*
X324270Y39923D02*
Y42270D01*
X316847Y32500D02*
X324270Y39923D01*
Y42270D02*
X338000Y56000D01*
Y84000D01*
X324638Y83332D02*
X325303Y83997D01*
X324638Y73926D02*
Y83332D01*
X321730Y71018D02*
X324638Y73926D01*
X321730Y68730D02*
Y71018D01*
X360903Y72721D02*
X365270Y68354D01*
X367000Y66000D02*
X367750Y65250D01*
X353198Y72721D02*
X360903D01*
X365270Y67730D02*
X367000Y66000D01*
X365270Y67730D02*
Y68354D01*
X350700Y84000D02*
X351362Y83338D01*
Y74557D02*
X353198Y72721D01*
X351362Y74557D02*
Y83338D01*
X350681Y128176D02*
Y141981D01*
X350663Y128158D02*
X350681Y128176D01*
Y141981D02*
X350700Y142000D01*
X262441Y156441D02*
X264000Y158000D01*
X261800Y142000D02*
X262441Y142641D01*
Y156441D01*
X346000Y66000D02*
X357000D01*
X318085Y46085D02*
Y57761D01*
X318169Y57846D01*
X318000Y46000D02*
X318085Y46085D01*
X317750Y45750D02*
X318000Y46000D01*
X326364Y119424D02*
X326429Y119488D01*
X271576Y119424D02*
X326364D01*
X325149Y127932D02*
X325225Y128007D01*
Y141925D01*
X261800Y129200D02*
X271576Y119424D01*
X325225Y141925D02*
X325300Y142000D01*
X261800Y129200D02*
Y142000D01*
X234000Y199000D02*
X242000D01*
X264000Y177000D01*
Y158000D02*
Y177000D01*
X363000Y128000D02*
X370000D01*
X338000Y103000D02*
X363000Y128000D01*
X338000Y84000D02*
Y103000D01*
X274812Y68568D02*
Y83688D01*
Y68568D02*
X276401Y66979D01*
X274500Y84000D02*
X274812Y83688D01*
X261800Y76814D02*
Y84000D01*
X287000Y58000D02*
X287100Y58100D01*
Y83900D02*
X287200Y84000D01*
X287100Y58100D02*
Y83900D01*
X298000Y67000D02*
X299322Y68322D01*
Y83422D01*
X299900Y84000D01*
X309730Y68730D02*
Y70716D01*
X311938Y72924D02*
Y83338D01*
X309730Y70716D02*
X311938Y72924D01*
X308000Y67000D02*
X309730Y68730D01*
X311938Y83338D02*
X312600Y84000D01*
X320000Y67000D02*
X321730Y68730D01*
X356250Y65250D02*
X357000Y66000D01*
X355500Y55000D02*
X356250Y55750D01*
Y65250D01*
X370100Y128600D02*
X397400D01*
X398000Y129200D01*
X423679D01*
X398000Y91100D02*
X423679D01*
X368208Y91230D02*
X368770D01*
X352300Y96672D02*
X362765D01*
X368770Y91230D02*
X370000Y90000D01*
X362765Y96672D02*
X368208Y91230D01*
X370000Y90000D02*
X370212Y90212D01*
X397112D02*
X398000Y91100D01*
X370212Y90212D02*
X397112D01*
X350812Y84112D02*
Y95184D01*
X352300Y96672D01*
X367750Y55750D02*
Y65250D01*
Y55750D02*
X368500Y55000D01*
X305500Y32500D02*
X316847D01*
X305750Y45750D02*
X317750D01*
X305500Y45500D02*
X305750Y45750D01*
D32*
X211754Y122216D02*
D03*
Y97216D02*
D03*
X231884Y122216D02*
D03*
D33*
X185000Y50000D02*
D03*
Y170000D02*
D03*
D34*
X231884Y97216D02*
D03*
D35*
X423679Y53000D02*
D03*
X398000D02*
D03*
D36*
X423679Y91100D02*
D03*
Y129200D02*
D03*
Y167300D02*
D03*
X398000Y91100D02*
D03*
Y129200D02*
D03*
Y167300D02*
D03*
D37*
X219000Y160000D02*
D03*
X299000Y210000D02*
D03*
X360000Y84000D02*
D03*
X380000Y76000D02*
D03*
X424000Y34000D02*
D03*
X398000D02*
D03*
X424000Y72000D02*
D03*
X398000D02*
D03*
X327000Y14000D02*
D03*
X315000Y22000D02*
D03*
X272000Y13000D02*
D03*
X284000Y25000D02*
D03*
X266403Y59810D02*
D03*
X264000Y191000D02*
D03*
X288000Y207000D02*
D03*
X229000Y173000D02*
D03*
X330000Y59000D02*
D03*
X430000Y200000D02*
D03*
X420000Y20000D02*
D03*
X410000Y200000D02*
D03*
X400000Y20000D02*
D03*
X390000Y200000D02*
D03*
X380000Y180000D02*
D03*
Y140000D02*
D03*
Y100000D02*
D03*
Y60000D02*
D03*
Y20000D02*
D03*
X370000Y200000D02*
D03*
X360000Y180000D02*
D03*
X370000Y160000D02*
D03*
X360000Y140000D02*
D03*
X350000Y200000D02*
D03*
Y40000D02*
D03*
X330000Y200000D02*
D03*
X300000Y100000D02*
D03*
Y20000D02*
D03*
X290000Y160000D02*
D03*
X280000Y100000D02*
D03*
X260000D02*
D03*
X250000Y120000D02*
D03*
Y80000D02*
D03*
X240000Y60000D02*
D03*
Y20000D02*
D03*
X230000Y80000D02*
D03*
X220000Y60000D02*
D03*
X230000Y40000D02*
D03*
X220000Y20000D02*
D03*
X210000Y200000D02*
D03*
Y160000D02*
D03*
X200000Y140000D02*
D03*
X210000Y80000D02*
D03*
Y40000D02*
D03*
X200000Y20000D02*
D03*
X190000Y200000D02*
D03*
X180000Y140000D02*
D03*
X190000Y120000D02*
D03*
X180000Y100000D02*
D03*
X190000Y80000D02*
D03*
X180000Y20000D02*
D03*
X170000Y200000D02*
D03*
X160000Y180000D02*
D03*
Y140000D02*
D03*
X170000Y120000D02*
D03*
X160000Y100000D02*
D03*
X170000Y80000D02*
D03*
X160000Y60000D02*
D03*
Y20000D02*
D03*
X150000Y200000D02*
D03*
X140000Y180000D02*
D03*
X150000Y160000D02*
D03*
X140000Y140000D02*
D03*
X150000Y120000D02*
D03*
X140000Y100000D02*
D03*
X150000Y80000D02*
D03*
X140000Y60000D02*
D03*
X150000Y40000D02*
D03*
X140000Y20000D02*
D03*
X350663Y128158D02*
D03*
X346000Y66000D02*
D03*
X318169Y57846D02*
D03*
X326429Y119488D02*
D03*
X325149Y127932D02*
D03*
X234000Y199000D02*
D03*
M02*
