G04*
G04 #@! TF.GenerationSoftware,Altium Limited,Altium Designer,23.1.1 (15)*
G04*
G04 Layer_Color=32896*
%FSLAX44Y44*%
%MOMM*%
G71*
G04*
G04 #@! TF.SameCoordinates,4691C8B8-A8D2-403F-8AEB-8B6B69F87735*
G04*
G04*
G04 #@! TF.FilePolarity,Positive*
G04*
G01*
G75*
%ADD11C,0.1500*%
%ADD12C,0.2000*%
%ADD50C,0.2500*%
%ADD51C,0.5000*%
D11*
X313499Y44670D02*
X308834D01*
X306501Y47002D01*
X308834Y49335D01*
X313499D01*
Y51667D02*
X306501D01*
Y55166D01*
X307667Y56333D01*
X312333D01*
X313499Y55166D01*
Y51667D01*
X312333Y58665D02*
X313499Y59832D01*
Y62164D01*
X312333Y63330D01*
X311166D01*
X310000Y62164D01*
Y60998D01*
Y62164D01*
X308834Y63330D01*
X307667D01*
X306501Y62164D01*
Y59832D01*
X307667Y58665D01*
X219333Y156834D02*
X220499Y155667D01*
Y153335D01*
X219333Y152169D01*
X214667D01*
X213501Y153335D01*
Y155667D01*
X214667Y156834D01*
Y159166D02*
X213501Y160333D01*
Y162665D01*
X214667Y163831D01*
X219333D01*
X220499Y162665D01*
Y160333D01*
X219333Y159166D01*
X218166D01*
X217000Y160333D01*
Y163831D01*
X264499Y169670D02*
X259834D01*
X257501Y172002D01*
X259834Y174335D01*
X264499D01*
Y176667D02*
X257501D01*
Y180166D01*
X258667Y181333D01*
X263333D01*
X264499Y180166D01*
Y176667D01*
X257501Y188330D02*
Y183665D01*
X262166Y188330D01*
X263333D01*
X264499Y187164D01*
Y184832D01*
X263333Y183665D01*
X279499Y45836D02*
X274834D01*
X272501Y48169D01*
X274834Y50501D01*
X279499D01*
Y52834D02*
X272501D01*
Y56333D01*
X273667Y57499D01*
X278333D01*
X279499Y56333D01*
Y52834D01*
X272501Y59831D02*
Y62164D01*
Y60998D01*
X279499D01*
X278333Y59831D01*
X362499Y143836D02*
X355501D01*
Y147335D01*
X356667Y148501D01*
X361333D01*
X362499Y147335D01*
Y143836D01*
Y150834D02*
X355501D01*
Y154333D01*
X356667Y155499D01*
X361333D01*
X362499Y154333D01*
Y150834D01*
X355501Y157831D02*
Y160164D01*
Y158998D01*
X362499D01*
X361333Y157831D01*
X276333Y167834D02*
X277499Y166667D01*
Y164335D01*
X276333Y163169D01*
X271667D01*
X270501Y164335D01*
Y166667D01*
X271667Y167834D01*
X276333Y170166D02*
X277499Y171333D01*
Y173665D01*
X276333Y174831D01*
X275166D01*
X274000Y173665D01*
Y172499D01*
Y173665D01*
X272834Y174831D01*
X271667D01*
X270501Y173665D01*
Y171333D01*
X271667Y170166D01*
X291333Y174834D02*
X292499Y173667D01*
Y171335D01*
X291333Y170168D01*
X286667D01*
X285501Y171335D01*
Y173667D01*
X286667Y174834D01*
X285501Y181831D02*
Y177166D01*
X290166Y181831D01*
X291333D01*
X292499Y180665D01*
Y178333D01*
X291333Y177166D01*
X303000Y212333D02*
X304166Y213499D01*
X306499D01*
X307665Y212333D01*
Y207667D01*
X306499Y206501D01*
X304166D01*
X303000Y207667D01*
X300667Y206501D02*
X298335D01*
X299501D01*
Y213499D01*
X300667Y212333D01*
D12*
X226500Y176500D02*
X252500D01*
X226500Y171500D02*
X252500D01*
X226500D02*
Y176500D01*
X252500Y171500D02*
Y176500D01*
X292500Y109000D02*
X321500D01*
X292500Y69000D02*
X321500D01*
Y135000D01*
X292500D02*
X321500D01*
X292500Y69000D02*
Y135000D01*
X299000Y192000D02*
X303250D01*
X299000Y187750D02*
Y192000D01*
X344750D02*
X349000D01*
Y187750D02*
Y192000D01*
Y142000D02*
Y146250D01*
X344750Y142000D02*
X349000D01*
X299000D02*
X303250D01*
X299000D02*
Y146250D01*
X260500Y109000D02*
X289500D01*
X260500Y69000D02*
X289500D01*
Y135000D01*
X260500D02*
X289500D01*
X260500Y69000D02*
Y135000D01*
D50*
X257750Y161000D02*
G03*
X257750Y161000I-1250J0D01*
G01*
D51*
X294000Y142000D02*
D03*
M02*
