G04*
G04 #@! TF.GenerationSoftware,Altium Limited,Altium Designer,23.1.1 (15)*
G04*
G04 Layer_Color=8421504*
%FSLAX44Y44*%
%MOMM*%
G71*
G04*
G04 #@! TF.SameCoordinates,4691C8B8-A8D2-403F-8AEB-8B6B69F87735*
G04*
G04*
G04 #@! TF.FilePolarity,Positive*
G04*
G01*
G75*
%ADD13O,0.6000X1.8500*%
%ADD14R,0.6000X0.6000*%
%ADD15R,0.7000X0.9000*%
%ADD16R,0.9000X0.7000*%
%ADD17R,0.8500X0.8500*%
%ADD18R,0.6000X0.5000*%
D13*
X261800Y84000D02*
D03*
X274500D02*
D03*
X287200D02*
D03*
X299900D02*
D03*
X312600D02*
D03*
X325300D02*
D03*
X338000D02*
D03*
X350700D02*
D03*
X261800Y142000D02*
D03*
X274500D02*
D03*
X287200D02*
D03*
X299900D02*
D03*
X312600D02*
D03*
X325300D02*
D03*
X338000D02*
D03*
X350700D02*
D03*
D14*
X367000Y66000D02*
D03*
X357000D02*
D03*
X365000Y25000D02*
D03*
X355000D02*
D03*
X328000Y46000D02*
D03*
X318000D02*
D03*
X268000Y39000D02*
D03*
X258000D02*
D03*
X264000Y158000D02*
D03*
X274000D02*
D03*
X330000Y67000D02*
D03*
X320000D02*
D03*
X308000D02*
D03*
X298000D02*
D03*
X287000Y58000D02*
D03*
X277000D02*
D03*
X266401Y66979D02*
D03*
X276401D02*
D03*
D15*
X368500Y55000D02*
D03*
X355500D02*
D03*
X362000Y36000D02*
D03*
D16*
X305500Y32500D02*
D03*
Y45500D02*
D03*
X286500Y39000D02*
D03*
D17*
X341000Y25000D02*
D03*
X327000D02*
D03*
X258000D02*
D03*
X272000D02*
D03*
D18*
X370000Y76000D02*
D03*
Y90000D02*
D03*
Y142000D02*
D03*
Y128000D02*
D03*
M02*
