M48
;Layer_Color=9474304
;FILE_FORMAT=4:4
METRIC,LZ
;TYPE=PLATED
T1F00S00C0.3000
T2F00S00C0.9500
T3F00S00C1.4000
T4F00S00C2.5000
%
T01
X0014Y0002
X0016
X0018
X002
X0022
X0024
X0023Y0004
X0021
X0022Y0006
X0024
X00266403Y0005981
X0025Y0008
X0023
X0021
X0019
X0017
X0015
X0016Y001
X0018
X0019Y0012
X0017
X0015
X0016Y0014
X0018
X002
X0021Y0016
X00219Y0016
X00229Y00173
X00234Y00199
X0021Y002
X0019
X0017
X0015
X0016Y0018
X0014
X0015Y0016
X0014Y0014
Y001
Y0006
X0016
X0015Y0004
X00272Y00013
X00284Y00025
X003Y0002
X00315Y00022
X00327Y00014
X0033Y00059
X00318169Y00057846
X00346Y00066
X0035Y0004
X0038Y0006
X0038Y00076
X0038Y001
X0036Y00084
X00350663Y00128158
X0036Y0014
X0038
X0037Y0016
X0038Y0018
X0036
X00334Y00177
X00324Y00167
X00314Y00157
X00334
X00325149Y00127932
X00326429Y00119488
X003Y001
X0028
X0026
X0025Y0012
X0029Y0016
X00314Y00177
X0033Y002
X0035
X0037
X0039
X00299Y0021
X00288Y00207
X00264Y00191
X0038Y0002
X004
X00398Y00034
X00424
X0042Y0002
X00424Y00072
X00398
X0041Y002
X0043
T02
X00211754Y00097216
X00231884
Y00122216
X00211754
T03
X00398Y00053
X00423679
Y000911
X00398
Y001292
X00423679
Y001673
X00398
T04
X00185Y0005
Y0017
M30
